<svg width="150" height="150" viewBox="0 0 150 150" fill="none" xmlns="http://www.w3.org/2000/svg">
<circle opacity="0.4" cx="75" cy="75" r="75" fill="#D9D9D9"/>
<g opacity="0.8" clip-path="url(#clip0_10_150)">
<path d="M119.375 73.4783V76.5172C119.347 76.6821 119.312 76.8439 119.293 77.008C119.141 78.3299 119.042 79.6602 118.831 80.9723C118.143 85.2367 116.655 89.2002 114.445 92.8652C111.088 98.4294 106.549 102.673 100.846 105.57C97.5537 107.251 94.0045 108.33 90.3553 108.762C89.5447 108.858 88.7349 108.945 87.9243 109.037H56.4711C56.3127 109.006 56.155 108.958 55.9951 108.948C52.8235 108.742 49.7721 107.997 46.8636 106.685C40.5315 103.828 35.8103 99.1983 32.7198 92.8257C31.3542 90.0148 30.4704 86.9815 30.1076 83.86C30.0184 83.1011 29.9314 82.3428 29.8438 81.5846V78.6361C29.874 78.4728 29.9204 78.3094 29.93 78.1453C30.0943 75.3123 30.658 72.5613 31.6506 69.9174C34.3218 62.8032 38.9782 57.5269 45.5954 54.1119C49.0285 52.3394 52.6879 51.408 56.5153 51.2013C58.3892 51.1011 60.2616 51.2089 62.1245 51.4665C62.2932 51.49 62.5364 51.4125 62.6536 51.2887C65.3321 48.4678 68.3821 46.1765 71.8211 44.4397C75.157 42.7554 78.6675 41.6697 82.363 41.2351C83.2325 41.1326 84.1043 41.0483 84.9753 40.9556H87.6568C87.8322 40.9837 88.0083 41.0156 88.1837 41.0369C89.5123 41.1964 90.8482 41.2967 92.1643 41.5238C96.2702 42.2342 100.092 43.7537 103.63 46.0108C109.053 49.4722 113.186 54.1575 116.01 60.056C117.643 63.4515 118.691 67.1137 119.109 70.8792C119.204 71.7461 119.286 72.6129 119.375 73.4783ZM69.315 53.8141C69.3688 53.887 69.382 53.9212 69.4049 53.9326C71.2463 54.8684 73.0064 55.9657 74.6655 57.2124C74.7702 57.2906 75.0295 57.2579 75.1563 57.1759C79.7161 54.197 84.6591 53.1691 89.9691 54.14C95.1723 55.0912 99.4064 57.7715 102.641 62.0526C106.304 66.8974 107.701 72.3759 106.69 78.4712C106.012 82.5563 104.425 86.2213 101.727 89.2914C96.8045 94.8883 90.6404 97.2032 83.3843 96.2232C78.9173 95.62 75.0612 93.6332 71.8698 90.3079C67.7734 86.042 63.6506 81.8042 59.5424 77.5497C58.9949 76.9829 58.3855 76.5271 57.597 76.4276C56.2198 76.2536 54.9701 76.9624 54.3754 78.238C53.8448 79.3768 53.9134 80.6608 55.0644 81.8277C59.6441 86.4629 64.1833 91.1406 68.7579 95.7803C69.5409 96.5784 70.3805 97.3151 71.2699 97.9842C74.6117 100.486 78.3794 101.87 82.4595 102.426C85.662 102.862 88.8395 102.769 91.9926 102.038C98.0071 100.646 102.989 97.4805 106.913 92.597C110.153 88.5613 112.113 83.9238 112.796 78.7174C113.191 75.7484 113.109 72.7324 112.551 69.7913C111.641 64.9822 109.668 60.679 106.506 57.0163C100.473 50.0321 92.8828 46.9142 83.8508 47.6101C80.3764 47.8775 77.0899 48.9297 73.9972 50.5989C72.3282 51.4929 70.7583 52.5709 69.315 53.8141ZM67.1051 102.571C66.9808 102.452 66.857 102.333 66.7337 102.213C64.8613 100.39 62.9785 98.5791 61.1282 96.733C60.7701 96.3759 60.4407 96.2019 59.9337 96.2141C58.0598 96.2612 56.1844 96.2695 54.3378 95.8395C45.1562 93.6986 39.8249 83.4065 43.2086 74.3504C45.8776 67.2097 53.2664 62.861 60.5527 64.2019C63.8186 64.8029 66.6851 66.2281 69.0379 68.7299C71.9074 71.7841 74.8623 74.7508 77.7626 77.7738C78.4229 78.4621 79.1811 78.7759 80.0956 78.6414C81.2776 78.4674 82.2186 77.887 82.646 76.6919C83.0645 75.5159 82.8619 74.4021 81.9983 73.5003C78.9542 70.3208 75.9823 67.0616 72.8152 64.0173C66.6725 58.1104 59.4289 56.3539 51.4175 58.8655C40.6421 62.241 34.3358 73.713 36.7977 85.0331C39.0415 95.3472 47.7906 102.586 58.0281 102.595C60.8865 102.598 63.7456 102.597 66.604 102.595C66.7455 102.595 66.887 102.582 67.1051 102.571Z" fill="#DA1F26"/>
</g>
<defs>
<clipPath id="clip0_10_150">
<rect width="89.5315" height="92.3077" fill="white" transform="translate(29.8438 28.8462)"/>
</clipPath>
</defs>
</svg>
