
<svg width="150" height="150" viewBox="0 0 150 150" fill="none" xmlns="http://www.w3.org/2000/svg">
<circle opacity="0.4" cx="75" cy="75" r="75" fill="#D9D9D9"/>
<g clip-path="url(#clip0_127_23)">
<path d="M74.951 138.674L41.5814 128.339L34.145 35.2871H115.857L108.413 128.324L74.951 138.674V138.674Z" fill="#264DE4"/>
<path d="M102.039 122.399L108.401 42.8945H75.0005V130.762L102.039 122.399V122.399Z" fill="#2965F1"/>
<path d="M51.1915 77.4075L52.1082 88.8199H74.9998V77.4075H51.1915ZM49.3491 54.3086L50.279 65.721H74.9998V54.3086H49.3491V54.3086ZM74.9998 107.047L74.9549 107.06L63.5625 103.628L62.8341 94.5262H52.5653L53.9983 112.445L74.9527 118.935L74.9998 118.92V107.047Z" fill="#EBEBEB"/>
<path d="M53.376 9.99927H65.7652V15.7796H58.5572V21.56H65.7659V27.3399H53.376V9.99927ZM68.2434 9.99927H80.633V15.0256H73.4246V16.0308H80.633V27.5915H68.2437V22.3132H75.4521V21.308H68.2431V9.99927H68.2434ZM83.1111 9.99927H95.5007V15.0256H88.2923V16.0308H95.5007V27.5915H83.1111V22.3132H90.3195V21.308H83.1114V9.99927H83.1111Z" fill="black"/>
<path d="M98.7438 77.4075L100.59 54.3086H74.9657V65.721H89.3798L88.449 77.4075H74.9657V88.8198H87.5621L86.3745 103.621L74.9653 107.056V118.929L95.9364 112.445L96.0901 110.517L98.4943 80.472L98.7438 77.4075V77.4075Z" fill="white"/>
</g>
<defs>
<clipPath id="clip0_127_23">
<rect width="82" height="129" fill="white" transform="translate(34 10)"/>
</clipPath>
</defs>
</svg>
