<svg width="150" height="150" viewBox="0 0 150 150" fill="none" xmlns="http://www.w3.org/2000/svg">
<circle opacity="0.4" cx="75" cy="75" r="75" fill="#D9D9D9"/>
<g clip-path="url(#clip0_16_53)">
<path opacity="0.8" d="M58.2891 126.925C66.7834 126.925 73.6773 120.176 73.6773 111.86V96.7964H58.2891C49.7948 96.7964 42.9009 103.545 42.9009 111.86C42.9009 120.176 49.7948 126.925 58.2891 126.925Z" fill="#0ACF83"/>
<path opacity="0.8" d="M42.9009 81.7326C42.9009 73.4172 49.7948 66.6685 58.2891 66.6685H73.6773V96.7967H58.2891C49.7948 96.7967 42.9009 90.0479 42.9009 81.7326Z" fill="#A259FF"/>
<path opacity="0.8" d="M42.9009 51.6041C42.9009 43.2888 49.7948 36.54 58.2891 36.54H73.6773V66.6682H58.2891C49.7948 66.6682 42.9009 59.9195 42.9009 51.6041Z" fill="#F24E1E"/>
<path opacity="0.8" d="M73.6772 36.54H89.0655C97.5598 36.54 104.454 43.2888 104.454 51.6041C104.454 59.9195 97.5598 66.6682 89.0655 66.6682H73.6772V36.54Z" fill="#FF7262"/>
<path opacity="0.8" d="M104.454 81.7326C104.454 90.0479 97.5598 96.7967 89.0655 96.7967C80.5712 96.7967 73.6772 90.0479 73.6772 81.7326C73.6772 73.4172 80.5712 66.6685 89.0655 66.6685C97.5598 66.6685 104.454 73.4172 104.454 81.7326Z" fill="#1ABCFE"/>
</g>
<defs>
<clipPath id="clip0_16_53">
<rect width="61.5529" height="90.3846" fill="white" transform="translate(42.9009 36.54)"/>
</clipPath>
</defs>
</svg>
