<svg width="150" height="150" viewBox="0 0 150 150" fill="none" xmlns="http://www.w3.org/2000/svg">
<circle opacity="0.4" cx="75" cy="75" r="75" fill="#D9D9D9"/>
<g opacity="0.8" clip-path="url(#clip0_12_129)">
<path d="M29.8438 80.1133V40.144L63.4181 60.1287V73.4517L41.0352 60.1287V86.7748L29.8438 80.1133Z" fill="#00B0FF"/>
<path d="M63.418 60.1287L96.9923 40.144V80.1133L74.6094 93.4364L63.418 86.7748L85.8008 73.4517V60.1287L63.418 73.4517V60.1287Z" fill="#0081CB"/>
<path d="M63.418 86.7749V100.098L85.8008 113.421V100.098L63.418 86.7749Z" fill="#00B0FF"/>
<path d="M85.8008 113.421L119.375 93.4364V66.7902L108.184 73.4517V86.7748L85.8008 100.098V113.421ZM108.184 60.1287V46.8056L119.375 40.144V53.4671L108.184 60.1287Z" fill="#0081CB"/>
</g>
<defs>
<clipPath id="clip0_12_129">
<rect width="89.5315" height="92.3077" fill="white" transform="translate(29.8438 30.769)"/>
</clipPath>
</defs>
</svg>
