<svg width="185" height="185" viewBox="0 0 185 185" fill="none" xmlns="http://www.w3.org/2000/svg">
<path d="M92.5 185C143.586 185 185 143.586 185 92.5C185 41.4137 143.586 0 92.5 0C41.4137 0 0 41.4137 0 92.5C0 143.586 41.4137 185 92.5 185Z" fill="#EBEBEB"/>
<path d="M70.3333 41.0835H114.667C120.788 41.0835 125.75 46.0457 125.75 52.1668V140.834C125.75 146.955 120.788 151.917 114.667 151.917H70.3333C64.2122 151.917 59.25 146.955 59.25 140.834V52.1668C59.25 46.0457 64.2122 41.0835 70.3333 41.0835ZM70.3333 52.1668V135.292H114.667V52.1668H70.3333Z" fill="#DD6F69"/>
</svg>
