<svg width="406" height="237" viewBox="0 0 406 237" fill="none" xmlns="http://www.w3.org/2000/svg">
<path d="M13.0407 53.1893C9.1675 53.1893 6.26957 52.0747 4.3469 49.8455C2.42423 47.6163 1.4629 44.2865 1.4629 39.856C1.4629 36.1778 2.17345 32.43 3.59455 28.6125C5.01566 24.7951 6.91046 21.4095 9.27896 18.4558H18.9341C17.3737 21.6603 16.1616 24.6279 15.2978 27.3586C14.4339 30.0894 14.002 32.8619 14.002 35.6762L10.0731 32.6669H12.163C15.3117 32.6669 17.8892 33.5864 19.8954 35.4255C21.9017 37.2367 22.9048 39.7306 22.9048 42.9072C22.9048 46.1952 21.9714 48.7309 20.1044 50.5142C18.2653 52.2976 15.9108 53.1893 13.0407 53.1893ZM36.1127 53.1893C32.2395 53.1893 29.3416 52.0747 27.4189 49.8455C25.4963 47.6163 24.5349 44.2865 24.5349 39.856C24.5349 36.1778 25.2455 32.43 26.6666 28.6125C28.0877 24.7951 29.9825 21.4095 32.351 18.4558H42.0061C40.4457 21.6603 39.2336 24.6279 38.3698 27.3586C37.506 30.0894 37.0741 32.8619 37.0741 35.6762L33.1451 32.6669H35.235C38.3837 32.6669 40.9612 33.5864 42.9675 35.4255C44.9737 37.2367 45.9768 39.7306 45.9768 42.9072C45.9768 46.1952 45.0434 48.7309 43.1764 50.5142C41.3374 52.2976 38.9828 53.1893 36.1127 53.1893Z" fill="#ECAD2B"/>
<path d="M362.507 185.101C364.067 181.869 365.28 178.888 366.143 176.157C367.035 173.426 367.481 170.667 367.481 167.881L371.368 170.89H369.278C366.129 170.89 363.552 169.971 361.546 168.132C359.539 166.293 358.536 163.785 358.536 160.608C358.536 157.348 359.498 154.826 361.42 153.043C363.343 151.26 365.879 150.368 369.027 150.368C372.594 150.368 375.311 151.483 377.178 153.712C379.045 155.941 379.978 159.257 379.978 163.659C379.978 167.338 379.268 171.085 377.847 174.903C376.426 178.72 374.531 182.12 372.162 185.101H362.507ZM385.579 185.101C387.14 181.869 388.352 178.888 389.215 176.157C390.107 173.426 390.553 170.667 390.553 167.881L394.44 170.89H392.35C389.201 170.89 386.624 169.971 384.618 168.132C382.611 166.293 381.608 163.785 381.608 160.608C381.608 157.348 382.57 154.826 384.492 153.043C386.415 151.26 388.951 150.368 392.099 150.368C395.666 150.368 398.383 151.483 400.25 153.712C402.117 155.941 403.05 159.257 403.05 163.659C403.05 167.338 402.34 171.085 400.919 174.903C399.498 178.72 397.603 182.12 395.234 185.101H385.579Z" fill="#ECAD2B"/>
<path d="M72.7576 85.4976V67.377H66.0165V61.7434H86.1594V67.377H79.4184V85.4976H72.7576ZM87.7233 85.4976V59.5606H94.2236V69.5598H94.5285C94.9779 68.9285 95.545 68.4363 96.2298 68.0832C96.9253 67.7301 97.7653 67.5535 98.7497 67.5535C99.7127 67.5535 100.595 67.7836 101.398 68.2437C102.211 68.6931 102.859 69.4314 103.34 70.4586C103.832 71.4858 104.078 72.8447 104.078 74.5353V85.4976H97.562V75.065C97.562 74.3588 97.4282 73.8719 97.1607 73.6044C96.9039 73.3369 96.5455 73.2032 96.0854 73.2032C95.8607 73.2032 95.6306 73.2353 95.3952 73.2995C95.1598 73.3637 94.9405 73.4546 94.7372 73.5723C94.5339 73.6793 94.3627 73.8024 94.2236 73.9415V85.4976H87.7233ZM116.043 85.8507C113.71 85.8507 111.816 85.5297 110.361 84.8877C108.906 84.2457 107.841 83.2452 107.167 81.8863C106.493 80.5167 106.156 78.7565 106.156 76.6058C106.156 74.7226 106.472 73.1069 107.103 71.7587C107.734 70.3998 108.665 69.3619 109.896 68.645C111.137 67.9174 112.667 67.5535 114.486 67.5535C116.187 67.5535 117.605 67.9174 118.739 68.645C119.874 69.3726 120.724 70.4319 121.291 71.8229C121.869 73.2032 122.158 74.867 122.158 76.8145V78.5479H110.393V74.8403H117.054L116.139 75.1131C116.139 74.1929 116.08 73.4814 115.963 72.9785C115.845 72.4756 115.658 72.1278 115.401 71.9352C115.155 71.7319 114.828 71.6303 114.422 71.6303C114.005 71.6303 113.668 71.7266 113.411 71.9192C113.154 72.1118 112.967 72.4649 112.849 72.9785C112.731 73.4814 112.672 74.1876 112.672 75.0971V77.9059C112.672 78.6549 112.785 79.2434 113.009 79.6714C113.234 80.0994 113.651 80.4043 114.261 80.5862C114.871 80.7681 115.765 80.8591 116.942 80.8591C117.627 80.8591 118.327 80.8163 119.044 80.7307C119.772 80.6344 120.489 80.5113 121.195 80.3615V85.2889C120.264 85.4815 119.387 85.6206 118.563 85.7062C117.739 85.8025 116.899 85.8507 116.043 85.8507ZM135.971 85.4976L130.53 61.7434H137.207L141.637 82.8814H139.839L144.735 61.7434H151.925L156.499 82.8814H154.862L159.469 61.7434H165.68L160.255 85.4976H151.733L147.415 66.093H149.149L144.494 85.4976H135.971ZM173.74 85.8507C171.932 85.8507 170.38 85.5136 169.086 84.8395C167.802 84.1654 166.817 83.1542 166.133 81.806C165.458 80.4578 165.121 78.7779 165.121 76.7663C165.121 74.7119 165.453 73.0052 166.116 71.6463C166.791 70.2767 167.77 69.2549 169.054 68.5808C170.338 67.896 171.9 67.5535 173.74 67.5535C175.57 67.5535 177.127 67.9013 178.411 68.5968C179.695 69.2923 180.674 70.3195 181.348 71.6784C182.022 73.0373 182.359 74.7172 182.359 76.7182C182.359 78.7512 182.017 80.4471 181.332 81.806C180.647 83.1542 179.657 84.1654 178.363 84.8395C177.079 85.5136 175.538 85.8507 173.74 85.8507ZM173.74 81.0356C174.19 81.0356 174.564 80.9233 174.864 80.6986C175.163 80.4739 175.388 80.0566 175.538 79.4467C175.698 78.8261 175.779 77.9326 175.779 76.7663C175.779 75.5679 175.698 74.653 175.538 74.0217C175.388 73.3904 175.158 72.9571 174.848 72.7217C174.548 72.4863 174.179 72.3686 173.74 72.3686C173.302 72.3686 172.927 72.4863 172.617 72.7217C172.317 72.9464 172.087 73.3744 171.927 74.0057C171.777 74.6263 171.702 75.5304 171.702 76.7182C171.702 77.9059 171.777 78.81 171.927 79.4306C172.076 80.0512 172.301 80.4739 172.601 80.6986C172.9 80.9233 173.28 81.0356 173.74 81.0356ZM184.494 85.4976V67.8424H189.807L190.304 70.1858H190.577C190.973 69.2228 191.529 68.5433 192.246 68.1474C192.963 67.7515 193.792 67.5535 194.734 67.5535C194.98 67.5535 195.226 67.5696 195.472 67.6017C195.729 67.6231 195.949 67.6498 196.13 67.6819V73.6205C195.842 73.5563 195.531 73.5135 195.199 73.4921C194.878 73.4707 194.584 73.46 194.317 73.46C193.867 73.46 193.429 73.5081 193.001 73.6044C192.573 73.69 192.182 73.8238 191.829 74.0057C191.487 74.1769 191.208 74.3802 190.994 74.6156V85.4976H184.494ZM198.036 85.4976V59.5606H204.537V85.4976H198.036ZM213.526 85.8346C212.317 85.8346 211.193 85.5297 210.155 84.9198C209.118 84.2992 208.278 83.3415 207.636 82.0468C207.004 80.7521 206.689 79.0775 206.689 77.0231C206.689 75.0222 207.036 73.3155 207.732 71.9031C208.438 70.4907 209.508 69.4154 210.942 68.6771C212.386 67.9281 214.211 67.5535 216.415 67.5535C216.575 67.5535 216.725 67.5589 216.864 67.5696C217.014 67.5803 217.159 67.5856 217.298 67.5856V59.5606H223.798V85.4976H218.325L217.924 83.6197H217.651C217.244 84.3045 216.699 84.8449 216.014 85.2408C215.329 85.6367 214.5 85.8346 213.526 85.8346ZM215.661 80.4899C215.96 80.4899 216.249 80.4525 216.527 80.3776C216.816 80.3027 217.073 80.1957 217.298 80.0566V72.5451C217.127 72.513 216.934 72.4916 216.72 72.4809C216.517 72.4595 216.335 72.4488 216.174 72.4488C215.201 72.4488 214.473 72.7377 213.991 73.3155C213.51 73.8933 213.269 74.9526 213.269 76.4935C213.269 77.5635 213.365 78.3874 213.558 78.9652C213.761 79.543 214.04 79.9442 214.393 80.1689C214.746 80.3829 215.168 80.4899 215.661 80.4899ZM227.284 72.5772C227.883 71.336 228.348 70.1911 228.68 69.1425C229.022 68.0939 229.194 67.0346 229.194 65.9646L230.686 67.1202H229.884C228.675 67.1202 227.685 66.7671 226.914 66.0609C226.144 65.3547 225.759 64.3917 225.759 63.1719C225.759 61.92 226.128 60.9516 226.866 60.2668C227.605 59.582 228.578 59.2396 229.787 59.2396C231.157 59.2396 232.2 59.6676 232.917 60.5236C233.634 61.3796 233.993 62.6529 233.993 64.3435C233.993 65.7559 233.72 67.1951 233.174 68.661C232.628 70.1269 231.901 71.4323 230.991 72.5772H227.284ZM241.248 85.8507C240.253 85.8507 239.284 85.7811 238.343 85.642C237.412 85.5136 236.529 85.3157 235.694 85.0482V80.185C236.476 80.4311 237.332 80.629 238.262 80.7788C239.193 80.9179 240.146 80.9875 241.119 80.9875C241.965 80.9875 242.537 80.9019 242.837 80.7307C243.136 80.5488 243.286 80.3134 243.286 80.0245C243.286 79.8212 243.227 79.6714 243.11 79.5751C242.992 79.4681 242.789 79.3825 242.5 79.3183L239.627 78.7405C238.15 78.4623 237.027 77.8952 236.256 77.0392C235.496 76.1832 235.117 75.0008 235.117 73.4921C235.117 71.6838 235.823 70.2446 237.235 69.1746C238.648 68.0939 240.777 67.5535 243.623 67.5535C244.479 67.5535 245.303 67.6017 246.095 67.698C246.897 67.7943 247.609 67.9227 248.23 68.0832V72.9464C247.609 72.7752 246.929 72.6414 246.191 72.5451C245.453 72.4488 244.693 72.4007 243.912 72.4007C243.12 72.4007 242.516 72.4542 242.098 72.5612C241.692 72.6682 241.414 72.8019 241.264 72.9624C241.125 73.1122 241.055 73.2674 241.055 73.4279C241.055 73.6098 241.119 73.7489 241.248 73.8452C241.376 73.9415 241.59 74.0164 241.89 74.0699L244.763 74.6477C246.164 74.9366 247.256 75.4769 248.037 76.2688C248.829 77.0499 249.225 78.2429 249.225 79.8479C249.225 81.7097 248.513 83.1756 247.09 84.2457C245.667 85.3157 243.719 85.8507 241.248 85.8507ZM265.836 85.8186C265.183 85.8186 264.445 85.7918 263.621 85.7383C262.808 85.6955 261.984 85.6313 261.149 85.5457C260.325 85.4708 259.576 85.3799 258.902 85.2729V62.2891C259.651 62.1179 260.475 61.9681 261.374 61.8397C262.273 61.7006 263.188 61.599 264.119 61.5348C265.05 61.4599 265.938 61.4224 266.783 61.4224C269.169 61.4224 271.127 61.6632 272.657 62.1447C274.198 62.6262 275.338 63.3698 276.076 64.3756C276.814 65.3707 277.183 66.6387 277.183 68.1795C277.183 69.0462 277.018 69.838 276.686 70.5549C276.365 71.2611 275.91 71.8603 275.322 72.3525C274.733 72.834 274.059 73.1711 273.299 73.3637V73.1711C274.583 73.3958 275.659 73.9522 276.525 74.8403C277.403 75.7284 277.841 77.0285 277.841 78.7405C277.841 79.8854 277.617 80.8965 277.167 81.7739C276.729 82.6513 276.028 83.3896 275.065 83.9888C274.112 84.5881 272.871 85.0428 271.341 85.3531C269.822 85.6634 267.987 85.8186 265.836 85.8186ZM267.714 80.9233C268.709 80.9233 269.495 80.8377 270.073 80.6665C270.662 80.4846 271.079 80.2064 271.325 79.8319C271.571 79.4574 271.694 78.9759 271.694 78.3874C271.694 77.5207 271.421 76.8947 270.876 76.5095C270.341 76.1136 269.447 75.9156 268.195 75.9156H264.761V70.8599H267.714C268.538 70.8599 269.185 70.7796 269.656 70.6191C270.127 70.4586 270.464 70.2125 270.667 69.8808C270.881 69.5491 270.988 69.1211 270.988 68.5968C270.988 67.7943 270.747 67.2165 270.266 66.8634C269.795 66.4996 268.971 66.3177 267.794 66.3177C267.366 66.3177 266.954 66.3391 266.558 66.3819C266.162 66.414 265.761 66.4621 265.354 66.5263V80.827C265.836 80.8591 266.259 80.8858 266.622 80.9072C266.986 80.9179 267.35 80.9233 267.714 80.9233ZM289.02 85.8507C286.688 85.8507 284.794 85.5297 283.339 84.8877C281.883 84.2457 280.819 83.2452 280.145 81.8863C279.471 80.5167 279.133 78.7565 279.133 76.6058C279.133 74.7226 279.449 73.1069 280.08 71.7587C280.712 70.3998 281.643 69.3619 282.873 68.645C284.114 67.9174 285.644 67.5535 287.463 67.5535C289.165 67.5535 290.583 67.9174 291.717 68.645C292.851 69.3726 293.702 70.4319 294.269 71.8229C294.847 73.2032 295.135 74.867 295.135 76.8145V78.5479H283.371V74.8403H290.032L289.117 75.1131C289.117 74.1929 289.058 73.4814 288.94 72.9785C288.822 72.4756 288.635 72.1278 288.378 71.9352C288.132 71.7319 287.806 71.6303 287.399 71.6303C286.982 71.6303 286.645 71.7266 286.388 71.9192C286.131 72.1118 285.944 72.4649 285.826 72.9785C285.709 73.4814 285.65 74.1876 285.65 75.0971V77.9059C285.65 78.6549 285.762 79.2434 285.987 79.6714C286.212 80.0994 286.629 80.4043 287.239 80.5862C287.849 80.7681 288.742 80.8591 289.919 80.8591C290.604 80.8591 291.305 80.8163 292.022 80.7307C292.749 80.6344 293.466 80.5113 294.172 80.3615V85.2889C293.242 85.4815 292.364 85.6206 291.54 85.7062C290.716 85.8025 289.876 85.8507 289.02 85.8507ZM302.407 85.8507C301.412 85.8507 300.444 85.7811 299.502 85.642C298.571 85.5136 297.689 85.3157 296.854 85.0482V80.185C297.635 80.4311 298.491 80.629 299.422 80.7788C300.353 80.9179 301.305 80.9875 302.279 80.9875C303.124 80.9875 303.697 80.9019 303.996 80.7307C304.296 80.5488 304.446 80.3134 304.446 80.0245C304.446 79.8212 304.387 79.6714 304.269 79.5751C304.151 79.4681 303.948 79.3825 303.659 79.3183L300.786 78.7405C299.31 78.4623 298.186 77.8952 297.416 77.0392C296.656 76.1832 296.276 75.0008 296.276 73.4921C296.276 71.6838 296.982 70.2446 298.395 69.1746C299.807 68.0939 301.937 67.5535 304.783 67.5535C305.639 67.5535 306.463 67.6017 307.255 67.698C308.057 67.7943 308.769 67.9227 309.389 68.0832V72.9464C308.769 72.7752 308.089 72.6414 307.351 72.5451C306.613 72.4488 305.853 72.4007 305.072 72.4007C304.28 72.4007 303.675 72.4542 303.258 72.5612C302.851 72.6682 302.573 72.8019 302.423 72.9624C302.284 73.1122 302.215 73.2674 302.215 73.4279C302.215 73.6098 302.279 73.7489 302.407 73.8452C302.536 73.9415 302.75 74.0164 303.049 74.0699L305.922 74.6477C307.324 74.9366 308.415 75.4769 309.197 76.2688C309.988 77.0499 310.384 78.2429 310.384 79.8479C310.384 81.7097 309.673 83.1756 308.25 84.2457C306.827 85.3157 304.879 85.8507 302.407 85.8507ZM320.186 85.8186C317.939 85.8186 316.216 85.2568 315.018 84.1333C313.819 82.9991 313.22 81.1747 313.22 78.6602V67.8424L314.424 61.7434H319.72V77.7775C319.72 78.794 319.886 79.4895 320.218 79.864C320.55 80.2278 321.149 80.4097 322.016 80.4097C322.251 80.4097 322.492 80.399 322.738 80.3776C322.995 80.3562 323.284 80.3187 323.605 80.2652V85.4173C323.144 85.5243 322.604 85.6153 321.983 85.6902C321.374 85.7758 320.774 85.8186 320.186 85.8186ZM310.813 72.8982V67.8424H323.605V72.8982H310.813ZM71.4575 125.498L66.0165 101.743H72.6934L77.1232 122.881H75.3256L80.2209 101.743H87.4113L91.9856 122.881H90.3485L94.9548 101.743H101.166L95.7413 125.498H87.2187L82.9012 106.093H84.6346L79.9801 125.498H71.4575ZM110.494 125.851C108.162 125.851 106.268 125.53 104.813 124.888C103.357 124.246 102.293 123.245 101.619 121.886C100.945 120.517 100.607 118.757 100.607 116.606C100.607 114.723 100.923 113.107 101.554 111.759C102.186 110.4 103.117 109.362 104.347 108.645C105.588 107.917 107.118 107.554 108.937 107.554C110.639 107.554 112.057 107.917 113.191 108.645C114.325 109.373 115.176 110.432 115.743 111.823C116.321 113.203 116.609 114.867 116.609 116.814V118.548H104.845V114.84H111.506L110.591 115.113C110.591 114.193 110.532 113.481 110.414 112.978C110.296 112.476 110.109 112.128 109.852 111.935C109.606 111.732 109.28 111.63 108.873 111.63C108.456 111.63 108.119 111.727 107.862 111.919C107.605 112.112 107.418 112.465 107.3 112.978C107.183 113.481 107.124 114.188 107.124 115.097V117.906C107.124 118.655 107.236 119.243 107.461 119.671C107.686 120.099 108.103 120.404 108.713 120.586C109.323 120.768 110.216 120.859 111.393 120.859C112.078 120.859 112.779 120.816 113.496 120.731C114.223 120.634 114.94 120.511 115.646 120.362V125.289C114.716 125.482 113.838 125.621 113.014 125.706C112.19 125.803 111.35 125.851 110.494 125.851ZM125.679 125.819C124.502 125.819 123.288 125.728 122.036 125.546C120.794 125.375 119.65 125.107 118.601 124.743V99.5606H125.101V109.56H125.406C125.823 108.907 126.364 108.41 127.027 108.067C127.691 107.725 128.461 107.554 129.338 107.554C130.473 107.554 131.521 107.869 132.484 108.501C133.458 109.121 134.239 110.084 134.828 111.39C135.416 112.684 135.71 114.337 135.71 116.349C135.71 119.388 134.902 121.731 133.287 123.379C131.682 125.016 129.146 125.829 125.679 125.819ZM126.225 120.939C127.198 120.939 127.926 120.65 128.408 120.073C128.889 119.495 129.13 118.436 129.13 116.895C129.13 115.825 129.028 115.006 128.825 114.439C128.632 113.861 128.343 113.465 127.958 113.251C127.584 113.027 127.124 112.914 126.578 112.914C126.332 112.914 126.075 112.941 125.807 112.995C125.551 113.037 125.315 113.107 125.101 113.203V120.811C125.272 120.854 125.449 120.886 125.631 120.907C125.823 120.929 126.021 120.939 126.225 120.939ZM152.334 125.786C151.649 125.786 150.927 125.77 150.167 125.738C149.407 125.717 148.648 125.679 147.888 125.626C147.128 125.572 146.401 125.503 145.705 125.417V102.289C146.465 102.118 147.267 101.968 148.113 101.84C148.969 101.711 149.841 101.615 150.729 101.551C151.628 101.476 152.527 101.438 153.425 101.438C157.727 101.438 160.964 102.423 163.136 104.392C165.308 106.35 166.394 109.426 166.394 113.62C166.394 116.467 165.875 118.789 164.837 120.586C163.81 122.373 162.258 123.689 160.182 124.535C158.107 125.369 155.49 125.786 152.334 125.786ZM154.164 120.378C155.341 120.378 156.33 120.174 157.133 119.768C157.946 119.35 158.556 118.65 158.963 117.665C159.38 116.67 159.589 115.316 159.589 113.604C159.589 111.892 159.369 110.544 158.931 109.56C158.503 108.565 157.877 107.858 157.053 107.441C156.229 107.024 155.239 106.815 154.083 106.815C153.827 106.815 153.527 106.831 153.185 106.863C152.842 106.895 152.559 106.938 152.334 106.992V120.345C152.687 120.356 153.019 120.367 153.329 120.378C153.639 120.378 153.918 120.378 154.164 120.378ZM178.018 125.851C175.685 125.851 173.791 125.53 172.336 124.888C170.881 124.246 169.816 123.245 169.142 121.886C168.468 120.517 168.131 118.757 168.131 116.606C168.131 114.723 168.446 113.107 169.078 111.759C169.709 110.4 170.64 109.362 171.87 108.645C173.112 107.917 174.642 107.554 176.461 107.554C178.162 107.554 179.58 107.917 180.714 108.645C181.848 109.373 182.699 110.432 183.266 111.823C183.844 113.203 184.133 114.867 184.133 116.814V118.548H172.368V114.84H179.029L178.114 115.113C178.114 114.193 178.055 113.481 177.937 112.978C177.82 112.476 177.632 112.128 177.376 111.935C177.13 111.732 176.803 111.63 176.397 111.63C175.979 111.63 175.642 111.727 175.385 111.919C175.129 112.112 174.941 112.465 174.824 112.978C174.706 113.481 174.647 114.188 174.647 115.097V117.906C174.647 118.655 174.759 119.243 174.984 119.671C175.209 120.099 175.626 120.404 176.236 120.586C176.846 120.768 177.739 120.859 178.916 120.859C179.601 120.859 180.302 120.816 181.019 120.731C181.747 120.634 182.463 120.511 183.17 120.362V125.289C182.239 125.482 181.361 125.621 180.537 125.706C179.714 125.803 178.874 125.851 178.018 125.851ZM191.405 125.851C190.41 125.851 189.441 125.781 188.5 125.642C187.569 125.514 186.686 125.316 185.851 125.048V120.185C186.632 120.431 187.488 120.629 188.419 120.779C189.35 120.918 190.303 120.987 191.276 120.987C192.122 120.987 192.694 120.902 192.994 120.731C193.293 120.549 193.443 120.313 193.443 120.024C193.443 119.821 193.384 119.671 193.266 119.575C193.149 119.468 192.945 119.382 192.657 119.318L189.784 118.74C188.307 118.462 187.183 117.895 186.413 117.039C185.653 116.183 185.274 115.001 185.274 113.492C185.274 111.684 185.98 110.245 187.392 109.175C188.805 108.094 190.934 107.554 193.78 107.554C194.636 107.554 195.46 107.602 196.252 107.698C197.054 107.794 197.766 107.923 198.386 108.083V112.946C197.766 112.775 197.086 112.641 196.348 112.545C195.61 112.449 194.85 112.401 194.069 112.401C193.277 112.401 192.673 112.454 192.255 112.561C191.849 112.668 191.571 112.802 191.421 112.962C191.282 113.112 191.212 113.267 191.212 113.428C191.212 113.61 191.276 113.749 191.405 113.845C191.533 113.941 191.747 114.016 192.047 114.07L194.92 114.648C196.321 114.937 197.413 115.477 198.194 116.269C198.986 117.05 199.382 118.243 199.382 119.848C199.382 121.71 198.67 123.176 197.247 124.246C195.824 125.316 193.876 125.851 191.405 125.851ZM201.234 125.498V107.842H207.766V125.498H201.234ZM204.492 106.093C203.144 106.093 202.154 105.799 201.523 105.21C200.891 104.611 200.576 103.787 200.576 102.739C200.576 101.669 200.891 100.845 201.523 100.267C202.154 99.6783 203.144 99.384 204.492 99.384C205.851 99.384 206.841 99.6783 207.461 100.267C208.093 100.845 208.408 101.669 208.408 102.739C208.408 103.787 208.093 104.611 207.461 105.21C206.841 105.799 205.851 106.093 204.492 106.093ZM216.947 132.881C216.059 132.881 215.118 132.832 214.123 132.736C213.127 132.64 212.154 132.485 211.201 132.271V127.215C212.1 127.44 212.988 127.605 213.866 127.712C214.743 127.819 215.578 127.873 216.37 127.873C217.803 127.873 218.852 127.605 219.515 127.07C220.19 126.546 220.527 125.658 220.527 124.406V123.572H220.222C219.815 124.224 219.275 124.727 218.601 125.08C217.937 125.423 217.167 125.594 216.289 125.594C215.209 125.594 214.181 125.289 213.208 124.679C212.234 124.058 211.442 123.117 210.832 121.854C210.222 120.581 209.917 118.965 209.917 117.007C209.917 114.022 210.72 111.7 212.325 110.041C213.941 108.383 216.493 107.554 219.981 107.554C220.751 107.554 221.548 107.596 222.372 107.682C223.207 107.757 224.02 107.875 224.812 108.035C225.614 108.196 226.353 108.394 227.027 108.629V123.202C227.027 126.594 226.192 129.055 224.523 130.585C222.865 132.116 220.339 132.881 216.947 132.881ZM219.05 120.297C219.307 120.297 219.564 120.276 219.82 120.233C220.077 120.18 220.313 120.105 220.527 120.008V112.529C220.355 112.497 220.168 112.476 219.965 112.465C219.772 112.443 219.58 112.433 219.387 112.433C218.467 112.433 217.755 112.722 217.252 113.299C216.749 113.867 216.498 114.915 216.498 116.445C216.498 117.473 216.589 118.264 216.771 118.821C216.963 119.377 217.247 119.762 217.621 119.976C218.007 120.19 218.483 120.297 219.05 120.297ZM229.854 125.498V107.842H235.215L235.665 109.576H235.937C236.494 108.912 237.157 108.41 237.928 108.067C238.709 107.725 239.575 107.554 240.528 107.554C241.608 107.554 242.577 107.784 243.433 108.244C244.289 108.704 244.963 109.447 245.455 110.475C245.958 111.491 246.209 112.845 246.209 114.535V125.498H239.693V115.001C239.693 114.305 239.559 113.834 239.292 113.588C239.035 113.332 238.677 113.203 238.217 113.203C237.97 113.203 237.73 113.235 237.494 113.299C237.27 113.364 237.056 113.455 236.852 113.572C236.66 113.679 236.494 113.802 236.355 113.941V125.498H229.854ZM255.15 125.498L261.618 101.743H271.457L277.925 125.498H271.44L266.192 104.616H266.786L261.57 125.498H255.15ZM260.157 120.008L261.457 114.632H271.585L272.885 120.008H260.157ZM285.474 132.881C284.586 132.881 283.644 132.832 282.649 132.736C281.654 132.64 280.68 132.485 279.728 132.271V127.215C280.627 127.44 281.515 127.605 282.392 127.712C283.27 127.819 284.104 127.873 284.896 127.873C286.33 127.873 287.378 127.605 288.042 127.07C288.716 126.546 289.053 125.658 289.053 124.406V123.572H288.748C288.341 124.224 287.801 124.727 287.127 125.08C286.464 125.423 285.693 125.594 284.816 125.594C283.735 125.594 282.708 125.289 281.734 124.679C280.76 124.058 279.969 123.117 279.359 121.854C278.749 120.581 278.444 118.965 278.444 117.007C278.444 114.022 279.246 111.7 280.851 110.041C282.467 108.383 285.019 107.554 288.507 107.554C289.278 107.554 290.075 107.596 290.899 107.682C291.733 107.757 292.547 107.875 293.338 108.035C294.141 108.196 294.879 108.394 295.553 108.629V123.202C295.553 126.594 294.719 129.055 293.049 130.585C291.391 132.116 288.866 132.881 285.474 132.881ZM287.576 120.297C287.833 120.297 288.09 120.276 288.347 120.233C288.604 120.18 288.839 120.105 289.053 120.008V112.529C288.882 112.497 288.695 112.476 288.491 112.465C288.299 112.443 288.106 112.433 287.913 112.433C286.993 112.433 286.282 112.722 285.779 113.299C285.276 113.867 285.024 114.915 285.024 116.445C285.024 117.473 285.115 118.264 285.297 118.821C285.49 119.377 285.773 119.762 286.148 119.976C286.533 120.19 287.009 120.297 287.576 120.297ZM307.61 125.851C305.277 125.851 303.383 125.53 301.928 124.888C300.473 124.246 299.408 123.245 298.734 121.886C298.06 120.517 297.723 118.757 297.723 116.606C297.723 114.723 298.038 113.107 298.67 111.759C299.301 110.4 300.232 109.362 301.462 108.645C302.704 107.917 304.234 107.554 306.053 107.554C307.754 107.554 309.172 107.917 310.306 108.645C311.44 109.373 312.291 110.432 312.858 111.823C313.436 113.203 313.725 114.867 313.725 116.814V118.548H301.96V114.84H308.621L307.706 115.113C307.706 114.193 307.647 113.481 307.529 112.978C307.412 112.476 307.224 112.128 306.968 111.935C306.722 111.732 306.395 111.63 305.989 111.63C305.571 111.63 305.234 111.727 304.977 111.919C304.721 112.112 304.533 112.465 304.416 112.978C304.298 113.481 304.239 114.188 304.239 115.097V117.906C304.239 118.655 304.351 119.243 304.576 119.671C304.801 120.099 305.218 120.404 305.828 120.586C306.438 120.768 307.331 120.859 308.508 120.859C309.193 120.859 309.894 120.816 310.611 120.731C311.339 120.634 312.056 120.511 312.762 120.362V125.289C311.831 125.482 310.953 125.621 310.129 125.706C309.306 125.803 308.466 125.851 307.61 125.851ZM315.716 125.498V107.842H321.077L321.526 109.576H321.799C322.356 108.912 323.019 108.41 323.789 108.067C324.57 107.725 325.437 107.554 326.389 107.554C327.47 107.554 328.439 107.784 329.295 108.244C330.151 108.704 330.825 109.447 331.317 110.475C331.82 111.491 332.071 112.845 332.071 114.535V125.498H325.555V115.001C325.555 114.305 325.421 113.834 325.154 113.588C324.897 113.332 324.538 113.203 324.078 113.203C323.832 113.203 323.591 113.235 323.356 113.299C323.131 113.364 322.917 113.455 322.714 113.572C322.521 113.679 322.356 113.802 322.216 113.941V125.498H315.716ZM343.394 125.851C341.404 125.851 339.718 125.514 338.338 124.84C336.968 124.165 335.925 123.154 335.208 121.806C334.502 120.458 334.149 118.757 334.149 116.702C334.149 114.605 334.539 112.882 335.321 111.534C336.102 110.186 337.22 109.185 338.675 108.533C340.141 107.88 341.885 107.554 343.907 107.554C344.592 107.554 345.24 107.58 345.849 107.634C346.459 107.687 347.048 107.773 347.615 107.891V113.043C347.176 112.968 346.743 112.914 346.315 112.882C345.887 112.85 345.454 112.834 345.015 112.834C344.041 112.834 343.249 112.968 342.639 113.235C342.03 113.492 341.58 113.904 341.291 114.471C341.013 115.028 340.874 115.75 340.874 116.638C340.874 117.601 341.013 118.371 341.291 118.949C341.569 119.527 341.987 119.944 342.543 120.201C343.1 120.447 343.8 120.57 344.646 120.57C345.106 120.57 345.566 120.533 346.026 120.458C346.497 120.372 347.026 120.249 347.615 120.089V125.241C347.016 125.433 346.347 125.583 345.609 125.69C344.87 125.797 344.132 125.851 343.394 125.851ZM353.399 132.56L355.517 125.498L357.684 120.185L360.702 107.842H367.09L359.739 132.56H353.399ZM353.591 125.498L348.359 107.842H355.084L359.45 125.498H353.591Z" fill="#ECAD2B"/>
<path d="M169.068 174.969C168.796 174.969 168.488 174.958 168.145 174.936C167.806 174.918 167.463 174.891 167.115 174.856C166.772 174.824 166.46 174.786 166.179 174.742V165.165C166.491 165.094 166.834 165.032 167.209 164.978C167.583 164.92 167.964 164.878 168.352 164.851C168.74 164.82 169.11 164.804 169.462 164.804C170.456 164.804 171.272 164.904 171.91 165.105C172.552 165.306 173.027 165.616 173.334 166.035C173.642 166.449 173.796 166.978 173.796 167.62C173.796 167.981 173.727 168.311 173.588 168.609C173.455 168.904 173.265 169.153 173.02 169.358C172.775 169.559 172.494 169.699 172.177 169.78V169.699C172.712 169.793 173.16 170.025 173.522 170.395C173.887 170.765 174.07 171.307 174.07 172.02C174.07 172.497 173.976 172.918 173.789 173.284C173.606 173.65 173.314 173.957 172.913 174.207C172.516 174.456 171.999 174.646 171.362 174.775C170.728 174.905 169.964 174.969 169.068 174.969ZM169.85 172.929C170.265 172.929 170.592 172.894 170.833 172.822C171.078 172.747 171.252 172.631 171.355 172.475C171.457 172.319 171.509 172.118 171.509 171.873C171.509 171.512 171.395 171.251 171.168 171.09C170.945 170.925 170.572 170.843 170.051 170.843H168.62V168.736H169.85C170.193 168.736 170.463 168.703 170.659 168.636C170.855 168.569 170.996 168.467 171.081 168.328C171.17 168.19 171.214 168.012 171.214 167.793C171.214 167.459 171.114 167.218 170.913 167.071C170.717 166.92 170.374 166.844 169.884 166.844C169.705 166.844 169.534 166.853 169.369 166.871C169.204 166.884 169.036 166.904 168.867 166.931V172.889C169.068 172.903 169.244 172.914 169.395 172.923C169.547 172.927 169.699 172.929 169.85 172.929ZM174.883 174.835V167.479H177.604V174.835H174.883ZM176.24 166.75C175.678 166.75 175.266 166.628 175.003 166.382C174.74 166.133 174.608 165.789 174.608 165.353C174.608 164.907 174.74 164.563 175.003 164.323C175.266 164.077 175.678 163.955 176.24 163.955C176.806 163.955 177.219 164.077 177.477 164.323C177.74 164.563 177.872 164.907 177.872 165.353C177.872 165.789 177.74 166.133 177.477 166.382C177.219 166.628 176.806 166.75 176.24 166.75ZM178.775 174.835V164.028H181.483V174.835H178.775ZM182.654 174.835V164.028H185.363V174.835H182.654ZM195.231 174.969C193.965 174.969 192.91 174.786 192.068 174.421C191.23 174.051 190.599 173.491 190.175 172.742C189.756 171.993 189.547 171.046 189.547 169.9C189.547 168.777 189.763 167.838 190.195 167.085C190.628 166.327 191.268 165.758 192.115 165.379C192.966 164.996 194.018 164.804 195.271 164.804C195.672 164.804 196.047 164.824 196.395 164.864C196.747 164.9 197.088 164.958 197.418 165.038V167.312C197.115 167.245 196.809 167.192 196.502 167.151C196.198 167.111 195.884 167.091 195.559 167.091C194.81 167.091 194.206 167.185 193.746 167.372C193.287 167.559 192.953 167.863 192.743 168.282C192.534 168.701 192.429 169.254 192.429 169.94C192.429 170.596 192.523 171.126 192.71 171.532C192.902 171.933 193.185 172.227 193.559 172.415C193.938 172.602 194.406 172.695 194.964 172.695C195.164 172.695 195.374 172.689 195.592 172.675C195.811 172.658 196.005 172.635 196.174 172.608L195.151 173.451V170.02H197.705V174.749C197.3 174.815 196.883 174.869 196.455 174.909C196.031 174.949 195.623 174.969 195.231 174.969ZM200.908 174.983C200.203 174.983 199.644 174.78 199.229 174.374C198.819 173.964 198.614 173.431 198.614 172.776C198.614 172.049 198.855 171.481 199.336 171.07C199.822 170.656 200.62 170.417 201.73 170.355L202.8 170.295L203.135 171.752L202.045 171.813C201.777 171.831 201.579 171.897 201.449 172.013C201.32 172.129 201.256 172.29 201.256 172.495C201.256 172.682 201.311 172.827 201.423 172.929C201.534 173.028 201.686 173.077 201.877 173.077C201.971 173.077 202.071 173.065 202.178 173.043C202.285 173.016 202.388 172.972 202.486 172.909V170.475C202.486 170.226 202.446 170.025 202.366 169.873C202.285 169.722 202.143 169.612 201.938 169.546C201.737 169.474 201.458 169.439 201.102 169.439C200.83 169.439 200.527 169.461 200.192 169.505C199.858 169.55 199.539 169.615 199.236 169.699V167.633C199.601 167.544 199.998 167.477 200.426 167.432C200.854 167.383 201.256 167.359 201.63 167.359C202.45 167.359 203.117 167.464 203.63 167.673C204.142 167.878 204.519 168.219 204.76 168.696C205.001 169.173 205.121 169.82 205.121 170.636V174.835H202.914L202.72 174.12H202.606C202.428 174.432 202.19 174.655 201.891 174.789C201.597 174.918 201.269 174.983 200.908 174.983ZM209.647 174.969C208.711 174.969 207.993 174.735 207.494 174.267C206.994 173.794 206.745 173.034 206.745 171.987V167.479L207.246 164.938H209.453V171.619C209.453 172.042 209.522 172.332 209.66 172.488C209.799 172.64 210.048 172.715 210.409 172.715C210.508 172.715 210.608 172.711 210.71 172.702C210.817 172.693 210.938 172.678 211.072 172.655V174.802C210.88 174.847 210.655 174.884 210.396 174.916C210.142 174.951 209.892 174.969 209.647 174.969ZM205.742 169.586V167.479H211.072V169.586H205.742ZM215.692 174.983C214.72 174.983 213.931 174.849 213.325 174.581C212.718 174.314 212.275 173.897 211.994 173.331C211.713 172.76 211.573 172.027 211.573 171.131C211.573 170.346 211.704 169.673 211.967 169.111C212.23 168.545 212.618 168.112 213.131 167.814C213.648 167.51 214.286 167.359 215.043 167.359C215.752 167.359 216.343 167.51 216.816 167.814C217.288 168.117 217.643 168.558 217.879 169.138C218.12 169.713 218.24 170.406 218.24 171.217V171.94H213.338V170.395H216.113L215.732 170.509C215.732 170.125 215.708 169.829 215.659 169.619C215.61 169.41 215.532 169.265 215.425 169.184C215.322 169.1 215.186 169.057 215.017 169.057C214.843 169.057 214.702 169.098 214.595 169.178C214.488 169.258 214.41 169.405 214.361 169.619C214.312 169.829 214.288 170.123 214.288 170.502V171.672C214.288 171.984 214.335 172.23 214.428 172.408C214.522 172.586 214.696 172.713 214.95 172.789C215.204 172.865 215.576 172.903 216.067 172.903C216.352 172.903 216.644 172.885 216.943 172.849C217.246 172.809 217.545 172.758 217.839 172.695V174.749C217.451 174.829 217.085 174.887 216.742 174.922C216.399 174.963 216.049 174.983 215.692 174.983ZM221.27 174.983C220.855 174.983 220.452 174.954 220.06 174.896C219.672 174.842 219.304 174.76 218.956 174.648V172.622C219.282 172.724 219.638 172.807 220.026 172.869C220.414 172.927 220.811 172.956 221.217 172.956C221.569 172.956 221.807 172.921 221.932 172.849C222.057 172.773 222.119 172.675 222.119 172.555C222.119 172.47 222.095 172.408 222.046 172.368C221.997 172.323 221.912 172.287 221.792 172.261L220.595 172.02C219.979 171.904 219.511 171.668 219.19 171.311C218.874 170.954 218.715 170.462 218.715 169.833C218.715 169.08 219.01 168.48 219.598 168.034C220.187 167.584 221.074 167.359 222.26 167.359C222.617 167.359 222.96 167.379 223.29 167.419C223.624 167.459 223.921 167.513 224.179 167.579V169.606C223.921 169.534 223.637 169.479 223.33 169.439C223.022 169.398 222.706 169.378 222.38 169.378C222.05 169.378 221.798 169.401 221.625 169.445C221.455 169.49 221.339 169.546 221.277 169.612C221.219 169.675 221.19 169.74 221.19 169.806C221.19 169.882 221.217 169.94 221.27 169.98C221.324 170.02 221.413 170.052 221.538 170.074L222.735 170.315C223.319 170.435 223.773 170.66 224.099 170.99C224.429 171.316 224.594 171.813 224.594 172.481C224.594 173.257 224.297 173.868 223.704 174.314C223.111 174.76 222.3 174.983 221.27 174.983ZM226.343 171.625V166.683H224.537V164.938H230.295V166.683H228.489V171.625H226.343ZM230.83 171.625V164.938H233.458L234.762 168.542H234.595L235.819 164.938H238.447V171.625H236.447V166.904H236.795L235.471 170.622H233.806L232.395 166.904H232.829V171.625H230.83ZM239.955 177.243C240.205 176.726 240.399 176.249 240.537 175.812C240.68 175.375 240.751 174.934 240.751 174.488L241.373 174.969H241.039C240.535 174.969 240.122 174.822 239.801 174.528C239.48 174.234 239.32 173.832 239.32 173.324C239.32 172.802 239.474 172.399 239.781 172.114C240.089 171.828 240.495 171.686 240.999 171.686C241.569 171.686 242.004 171.864 242.303 172.221C242.601 172.577 242.751 173.108 242.751 173.812C242.751 174.401 242.637 175 242.41 175.611C242.182 176.222 241.879 176.766 241.5 177.243H239.955ZM251.79 174.969C250.956 174.969 250.216 174.871 249.569 174.675C248.923 174.479 248.377 174.176 247.931 173.765C247.489 173.355 247.155 172.831 246.928 172.194C246.7 171.556 246.587 170.796 246.587 169.913C246.587 168.785 246.794 167.843 247.209 167.085C247.628 166.327 248.234 165.758 249.028 165.379C249.821 164.996 250.784 164.804 251.917 164.804C252.26 164.804 252.599 164.822 252.933 164.858C253.272 164.889 253.593 164.938 253.896 165.005V167.279C253.624 167.225 253.343 167.18 253.053 167.145C252.768 167.109 252.472 167.091 252.164 167.091C251.553 167.091 251.047 167.185 250.646 167.372C250.249 167.559 249.955 167.858 249.763 168.268C249.571 168.674 249.476 169.213 249.476 169.887C249.476 170.573 249.569 171.122 249.757 171.532C249.944 171.938 250.231 172.23 250.619 172.408C251.012 172.586 251.515 172.675 252.131 172.675C252.398 172.675 252.683 172.649 252.987 172.595C253.29 172.542 253.593 172.473 253.896 172.388V174.662C253.615 174.755 253.285 174.829 252.906 174.882C252.527 174.94 252.155 174.969 251.79 174.969ZM254.854 174.835V164.938H261.856V167.198H257.576V172.575H261.923V174.835H254.854ZM256.626 170.917V168.656H261.154V170.917H256.626ZM267.216 174.969C266.284 174.969 265.468 174.786 264.768 174.421C264.068 174.055 263.522 173.498 263.13 172.749C262.742 172 262.548 171.046 262.548 169.887C262.548 168.727 262.742 167.773 263.13 167.024C263.522 166.275 264.068 165.718 264.768 165.353C265.468 164.987 266.284 164.804 267.216 164.804C268.152 164.804 268.97 164.987 269.67 165.353C270.37 165.718 270.914 166.278 271.302 167.031C271.694 167.78 271.89 168.732 271.89 169.887C271.89 171.041 271.694 171.995 271.302 172.749C270.914 173.498 270.368 174.055 269.663 174.421C268.963 174.786 268.148 174.969 267.216 174.969ZM267.216 172.729C267.613 172.729 267.947 172.635 268.219 172.448C268.491 172.261 268.698 171.964 268.841 171.559C268.984 171.148 269.055 170.609 269.055 169.94C269.055 169.236 268.981 168.672 268.834 168.248C268.692 167.825 268.484 167.519 268.212 167.332C267.94 167.14 267.608 167.044 267.216 167.044C266.823 167.044 266.491 167.136 266.219 167.319C265.947 167.501 265.74 167.798 265.597 168.208C265.455 168.618 265.383 169.16 265.383 169.833C265.383 170.542 265.453 171.108 265.591 171.532C265.733 171.955 265.941 172.261 266.213 172.448C266.489 172.635 266.823 172.729 267.216 172.729ZM276.171 174.835V164.938H279.562L281.822 170.709H281.581L283.748 164.938H287.145V174.835H284.577V167.472H285.039L282.745 173.364H280.565L278.164 167.472H278.739V174.835H276.171ZM288.414 174.835V167.479H291.136V174.835H288.414ZM289.772 166.75C289.21 166.75 288.797 166.628 288.534 166.382C288.271 166.133 288.14 165.789 288.14 165.353C288.14 164.907 288.271 164.563 288.534 164.323C288.797 164.077 289.21 163.955 289.772 163.955C290.338 163.955 290.75 164.077 291.009 164.323C291.272 164.563 291.403 164.907 291.403 165.353C291.403 165.789 291.272 166.133 291.009 166.382C290.75 166.628 290.338 166.75 289.772 166.75ZM295.884 174.983C295.055 174.983 294.353 174.842 293.778 174.561C293.207 174.28 292.772 173.859 292.473 173.297C292.179 172.736 292.032 172.027 292.032 171.171C292.032 170.297 292.195 169.579 292.52 169.017C292.846 168.456 293.312 168.039 293.918 167.767C294.529 167.495 295.256 167.359 296.098 167.359C296.383 167.359 296.653 167.37 296.907 167.392C297.161 167.415 297.407 167.45 297.643 167.499V169.646C297.46 169.615 297.28 169.592 297.101 169.579C296.923 169.566 296.742 169.559 296.56 169.559C296.154 169.559 295.824 169.615 295.57 169.726C295.316 169.833 295.128 170.005 295.008 170.241C294.892 170.473 294.834 170.774 294.834 171.144C294.834 171.545 294.892 171.866 295.008 172.107C295.124 172.348 295.298 172.522 295.53 172.629C295.762 172.731 296.054 172.782 296.406 172.782C296.597 172.782 296.789 172.767 296.981 172.736C297.177 172.7 297.398 172.649 297.643 172.582V174.728C297.393 174.809 297.115 174.871 296.807 174.916C296.499 174.96 296.192 174.983 295.884 174.983ZM298.537 174.835V167.479H300.75L300.958 168.456H301.071C301.236 168.054 301.468 167.771 301.767 167.606C302.065 167.441 302.411 167.359 302.803 167.359C302.906 167.359 303.008 167.365 303.111 167.379C303.218 167.388 303.309 167.399 303.385 167.412V169.887C303.265 169.86 303.135 169.842 302.997 169.833C302.864 169.824 302.741 169.82 302.629 169.82C302.442 169.82 302.259 169.84 302.081 169.88C301.903 169.916 301.74 169.971 301.593 170.047C301.45 170.119 301.334 170.203 301.245 170.301V174.835H298.537ZM307.353 174.983C306.599 174.983 305.953 174.842 305.413 174.561C304.878 174.28 304.468 173.859 304.183 173.297C303.902 172.736 303.761 172.036 303.761 171.197C303.761 170.341 303.9 169.63 304.176 169.064C304.457 168.493 304.865 168.068 305.4 167.787C305.935 167.501 306.586 167.359 307.353 167.359C308.115 167.359 308.764 167.504 309.299 167.793C309.834 168.083 310.242 168.511 310.523 169.077C310.803 169.644 310.944 170.344 310.944 171.177C310.944 172.024 310.801 172.731 310.516 173.297C310.231 173.859 309.818 174.28 309.279 174.561C308.744 174.842 308.102 174.983 307.353 174.983ZM307.353 172.976C307.54 172.976 307.696 172.929 307.821 172.836C307.946 172.742 308.039 172.568 308.102 172.314C308.169 172.056 308.202 171.683 308.202 171.197C308.202 170.698 308.169 170.317 308.102 170.054C308.039 169.791 307.943 169.61 307.814 169.512C307.689 169.414 307.535 169.365 307.353 169.365C307.17 169.365 307.014 169.414 306.885 169.512C306.76 169.606 306.664 169.784 306.597 170.047C306.535 170.306 306.503 170.682 306.503 171.177C306.503 171.672 306.535 172.049 306.597 172.308C306.659 172.566 306.753 172.742 306.878 172.836C307.003 172.929 307.161 172.976 307.353 172.976ZM314.034 174.983C313.619 174.983 313.215 174.954 312.823 174.896C312.435 174.842 312.067 174.76 311.72 174.648V172.622C312.045 172.724 312.402 172.807 312.79 172.869C313.178 172.927 313.574 172.956 313.98 172.956C314.332 172.956 314.571 172.921 314.696 172.849C314.821 172.773 314.883 172.675 314.883 172.555C314.883 172.47 314.858 172.408 314.809 172.368C314.76 172.323 314.676 172.287 314.555 172.261L313.358 172.02C312.743 171.904 312.275 171.668 311.954 171.311C311.637 170.954 311.479 170.462 311.479 169.833C311.479 169.08 311.773 168.48 312.362 168.034C312.95 167.584 313.837 167.359 315.023 167.359C315.38 167.359 315.723 167.379 316.053 167.419C316.388 167.459 316.684 167.513 316.943 167.579V169.606C316.684 169.534 316.401 169.479 316.093 169.439C315.786 169.398 315.469 169.378 315.144 169.378C314.814 169.378 314.562 169.401 314.388 169.445C314.219 169.49 314.103 169.546 314.04 169.612C313.982 169.675 313.953 169.74 313.953 169.806C313.953 169.882 313.98 169.94 314.034 169.98C314.087 170.02 314.176 170.052 314.301 170.074L315.498 170.315C316.082 170.435 316.537 170.66 316.862 170.99C317.192 171.316 317.357 171.813 317.357 172.481C317.357 173.257 317.061 173.868 316.468 174.314C315.875 174.76 315.063 174.983 314.034 174.983ZM321.446 174.983C320.693 174.983 320.046 174.842 319.507 174.561C318.972 174.28 318.562 173.859 318.276 173.297C317.995 172.736 317.855 172.036 317.855 171.197C317.855 170.341 317.993 169.63 318.27 169.064C318.55 168.493 318.958 168.068 319.493 167.787C320.028 167.501 320.679 167.359 321.446 167.359C322.208 167.359 322.857 167.504 323.392 167.793C323.927 168.083 324.335 168.511 324.616 169.077C324.897 169.644 325.037 170.344 325.037 171.177C325.037 172.024 324.895 172.731 324.609 173.297C324.324 173.859 323.912 174.28 323.372 174.561C322.837 174.842 322.195 174.983 321.446 174.983ZM321.446 172.976C321.633 172.976 321.789 172.929 321.914 172.836C322.039 172.742 322.133 172.568 322.195 172.314C322.262 172.056 322.295 171.683 322.295 171.197C322.295 170.698 322.262 170.317 322.195 170.054C322.133 169.791 322.037 169.61 321.908 169.512C321.783 169.414 321.629 169.365 321.446 169.365C321.263 169.365 321.107 169.414 320.978 169.512C320.853 169.606 320.757 169.784 320.69 170.047C320.628 170.306 320.597 170.682 320.597 171.177C320.597 171.672 320.628 172.049 320.69 172.308C320.753 172.566 320.846 172.742 320.971 172.836C321.096 172.929 321.254 172.976 321.446 172.976ZM326.247 174.835V167.265C326.247 166.565 326.378 165.963 326.641 165.46C326.909 164.956 327.305 164.57 327.831 164.303C328.362 164.031 329.017 163.895 329.798 163.895C329.98 163.895 330.159 163.901 330.333 163.915C330.511 163.928 330.683 163.948 330.848 163.975V166.081C330.732 166.068 330.625 166.059 330.527 166.055C330.433 166.046 330.337 166.041 330.239 166.041C329.766 166.041 329.43 166.131 329.229 166.309C329.029 166.483 328.928 166.75 328.928 167.111V174.835H326.247ZM325.243 169.586V167.479H330.54V169.586H325.243ZM333.706 174.969C332.77 174.969 332.052 174.735 331.553 174.267C331.053 173.794 330.804 173.034 330.804 171.987V167.479L331.305 164.938H333.512V171.619C333.512 172.042 333.581 172.332 333.72 172.488C333.858 172.64 334.107 172.715 334.469 172.715C334.567 172.715 334.667 172.711 334.769 172.702C334.876 172.693 334.997 172.678 335.131 172.655V174.802C334.939 174.847 334.714 174.884 334.455 174.916C334.201 174.951 333.951 174.969 333.706 174.969ZM329.801 169.586V167.479H335.131V169.586H329.801ZM344.013 174.983C343.006 174.983 342.125 174.771 341.372 174.347C340.623 173.924 340.038 173.331 339.619 172.568C339.205 171.802 338.997 170.908 338.997 169.887C338.997 168.866 339.205 167.974 339.619 167.212C340.038 166.445 340.623 165.85 341.372 165.426C342.125 165.003 343.006 164.791 344.013 164.791C345.021 164.791 345.899 165.003 346.648 165.426C347.401 165.85 347.986 166.445 348.4 167.212C348.819 167.974 349.029 168.866 349.029 169.887C349.029 170.908 348.819 171.802 348.4 172.568C347.986 173.331 347.401 173.924 346.648 174.347C345.899 174.771 345.021 174.983 344.013 174.983ZM344.481 172.669C343.572 172.669 342.847 172.43 342.308 171.953C341.768 171.472 341.499 170.801 341.499 169.94C341.499 169.071 341.775 168.395 342.328 167.914C342.881 167.428 343.625 167.185 344.562 167.185C344.811 167.185 345.041 167.198 345.25 167.225C345.46 167.247 345.658 167.283 345.846 167.332V169.004C345.645 168.968 345.458 168.941 345.284 168.924C345.114 168.906 344.936 168.897 344.749 168.897C344.316 168.897 344 168.988 343.799 169.171C343.603 169.349 343.505 169.606 343.505 169.94C343.505 170.266 343.605 170.518 343.806 170.696C344.006 170.87 344.294 170.957 344.669 170.957C344.856 170.957 345.034 170.946 345.204 170.923C345.373 170.896 345.587 170.854 345.846 170.796V172.468C345.681 172.526 345.48 172.575 345.244 172.615C345.012 172.651 344.758 172.669 344.481 172.669ZM344.013 173.565C344.767 173.565 345.406 173.418 345.932 173.123C346.459 172.825 346.858 172.401 347.13 171.853C347.406 171.3 347.544 170.645 347.544 169.887C347.544 169.129 347.406 168.476 347.13 167.927C346.858 167.374 346.459 166.951 345.932 166.657C345.406 166.358 344.767 166.209 344.013 166.209C343.26 166.209 342.62 166.358 342.094 166.657C341.568 166.951 341.166 167.374 340.89 167.927C340.618 168.476 340.482 169.129 340.482 169.887C340.482 170.645 340.618 171.3 340.89 171.853C341.166 172.401 341.568 172.825 342.094 173.123C342.62 173.418 343.26 173.565 344.013 173.565Z" fill="#18112C"/>
<path d="M150.717 172.114V169.927H155.298V172.114H150.717Z" fill="black"/>
</svg>
