<svg width="1210" height="710" viewBox="0 0 1210 710" fill="none" xmlns="http://www.w3.org/2000/svg">
<path d="M39 159.875C27.4167 159.875 18.75 156.542 13 149.875C7.25 143.208 4.375 133.25 4.375 120C4.375 109 6.5 97.7917 10.75 86.375C15 74.9583 20.6667 64.8333 27.75 56H56.625C51.9583 65.5833 48.3333 74.4583 45.75 82.625C43.1667 90.7917 41.875 99.0833 41.875 107.5L30.125 98.5H36.375C45.7917 98.5 53.5 101.25 59.5 106.75C65.5 112.167 68.5 119.625 68.5 129.125C68.5 138.958 65.7083 146.542 60.125 151.875C54.625 157.208 47.5833 159.875 39 159.875ZM108 159.875C96.4167 159.875 87.75 156.542 82 149.875C76.25 143.208 73.375 133.25 73.375 120C73.375 109 75.5 97.7917 79.75 86.375C84 74.9583 89.6667 64.8333 96.75 56H125.625C120.958 65.5833 117.333 74.4583 114.75 82.625C112.167 90.7917 110.875 99.0833 110.875 107.5L99.125 98.5H105.375C114.792 98.5 122.5 101.25 128.5 106.75C134.5 112.167 137.5 119.625 137.5 129.125C137.5 138.958 134.708 146.542 129.125 151.875C123.625 157.208 116.583 159.875 108 159.875Z" fill="#ECAD2B"/>
<path d="M1084.13 554.375C1088.79 544.708 1092.42 535.792 1095 527.625C1097.67 519.458 1099 511.208 1099 502.875L1110.63 511.875H1104.38C1094.96 511.875 1087.25 509.125 1081.25 503.625C1075.25 498.125 1072.25 490.625 1072.25 481.125C1072.25 471.375 1075.13 463.833 1080.88 458.5C1086.63 453.167 1094.21 450.5 1103.63 450.5C1114.29 450.5 1122.42 453.833 1128 460.5C1133.58 467.167 1136.38 477.083 1136.38 490.25C1136.38 501.25 1134.25 512.458 1130 523.875C1125.75 535.292 1120.08 545.458 1113 554.375H1084.13ZM1153.13 554.375C1157.79 544.708 1161.42 535.792 1164 527.625C1166.67 519.458 1168 511.208 1168 502.875L1179.63 511.875H1173.38C1163.96 511.875 1156.25 509.125 1150.25 503.625C1144.25 498.125 1141.25 490.625 1141.25 481.125C1141.25 471.375 1144.13 463.833 1149.88 458.5C1155.63 453.167 1163.21 450.5 1172.63 450.5C1183.29 450.5 1191.42 453.833 1197 460.5C1202.58 467.167 1205.38 477.083 1205.38 490.25C1205.38 501.25 1203.25 512.458 1199 523.875C1194.75 535.292 1189.08 545.458 1182 554.375H1153.13Z" fill="#ECAD2B"/>
<path d="M217.592 256V201.808H197.432V184.96H257.672V201.808H237.512V256H217.592ZM262.349 256V178.432H281.789V208.336H282.701C284.045 206.448 285.741 204.976 287.789 203.92C289.869 202.864 292.381 202.336 295.325 202.336C298.205 202.336 300.845 203.024 303.245 204.4C305.677 205.744 307.613 207.952 309.053 211.024C310.525 214.096 311.261 218.16 311.261 223.216V256H291.773V224.8C291.773 222.688 291.373 221.232 290.573 220.432C289.805 219.632 288.733 219.232 287.357 219.232C286.685 219.232 285.997 219.328 285.293 219.52C284.589 219.712 283.933 219.984 283.325 220.336C282.717 220.656 282.205 221.024 281.789 221.44V256H262.349ZM347.043 257.056C340.067 257.056 334.403 256.096 330.051 254.176C325.699 252.256 322.515 249.264 320.499 245.2C318.483 241.104 317.475 235.84 317.475 229.408C317.475 223.776 318.419 218.944 320.307 214.912C322.195 210.848 324.979 207.744 328.659 205.6C332.371 203.424 336.947 202.336 342.387 202.336C347.475 202.336 351.715 203.424 355.107 205.6C358.499 207.776 361.043 210.944 362.739 215.104C364.467 219.232 365.331 224.208 365.331 230.032V235.216H330.147V224.128H350.067L347.331 224.944C347.331 222.192 347.155 220.064 346.803 218.56C346.451 217.056 345.891 216.016 345.123 215.44C344.387 214.832 343.411 214.528 342.195 214.528C340.947 214.528 339.939 214.816 339.171 215.392C338.403 215.968 337.843 217.024 337.491 218.56C337.139 220.064 336.963 222.176 336.963 224.896V233.296C336.963 235.536 337.299 237.296 337.971 238.576C338.643 239.856 339.891 240.768 341.715 241.312C343.539 241.856 346.211 242.128 349.731 242.128C351.779 242.128 353.875 242 356.019 241.744C358.195 241.456 360.339 241.088 362.451 240.64V255.376C359.667 255.952 357.043 256.368 354.579 256.624C352.115 256.912 349.603 257.056 347.043 257.056ZM406.642 256L390.37 184.96H410.338L423.586 248.176H418.21L432.85 184.96H454.354L468.034 248.176H463.138L476.914 184.96H495.49L479.266 256H453.778L440.866 197.968H446.05L432.13 256H406.642ZM519.595 257.056C514.187 257.056 509.547 256.048 505.674 254.032C501.835 252.016 498.891 248.992 496.843 244.96C494.827 240.928 493.819 235.904 493.819 229.888C493.819 223.744 494.811 218.64 496.795 214.576C498.811 210.48 501.739 207.424 505.579 205.408C509.419 203.36 514.091 202.336 519.595 202.336C525.067 202.336 529.723 203.376 533.563 205.456C537.403 207.536 540.331 210.608 542.347 214.672C544.363 218.736 545.371 223.76 545.371 229.744C545.371 235.824 544.347 240.896 542.299 244.96C540.251 248.992 537.291 252.016 533.419 254.032C529.579 256.048 524.971 257.056 519.595 257.056ZM519.595 242.656C520.939 242.656 522.059 242.32 522.955 241.648C523.851 240.976 524.523 239.728 524.971 237.904C525.451 236.048 525.691 233.376 525.691 229.888C525.691 226.304 525.451 223.568 524.971 221.68C524.523 219.792 523.835 218.496 522.907 217.792C522.011 217.088 520.907 216.736 519.595 216.736C518.283 216.736 517.163 217.088 516.234 217.792C515.339 218.464 514.651 219.744 514.171 221.632C513.723 223.488 513.499 226.192 513.499 229.744C513.499 233.296 513.723 236 514.171 237.856C514.619 239.712 515.291 240.976 516.187 241.648C517.083 242.32 518.219 242.656 519.595 242.656ZM551.755 256V203.2H567.643L569.131 210.208H569.947C571.131 207.328 572.795 205.296 574.939 204.112C577.083 202.928 579.563 202.336 582.379 202.336C583.115 202.336 583.851 202.384 584.587 202.48C585.355 202.544 586.011 202.624 586.555 202.72V220.48C585.691 220.288 584.763 220.16 583.771 220.096C582.811 220.032 581.931 220 581.131 220C579.787 220 578.475 220.144 577.195 220.432C575.915 220.688 574.747 221.088 573.691 221.632C572.667 222.144 571.835 222.752 571.195 223.456V256H551.755ZM592.255 256V178.432H611.695V256H592.255ZM638.579 257.008C634.963 257.008 631.603 256.096 628.499 254.272C625.395 252.416 622.883 249.552 620.963 245.68C619.075 241.808 618.131 236.8 618.131 230.656C618.131 224.672 619.171 219.568 621.251 215.344C623.363 211.12 626.563 207.904 630.851 205.696C635.171 203.456 640.627 202.336 647.219 202.336C647.699 202.336 648.147 202.352 648.563 202.384C649.011 202.416 649.443 202.432 649.859 202.432V178.432H669.299V256H652.931L651.731 250.384H650.915C649.699 252.432 648.067 254.048 646.019 255.232C643.971 256.416 641.491 257.008 638.579 257.008ZM644.963 241.024C645.859 241.024 646.723 240.912 647.555 240.688C648.419 240.464 649.187 240.144 649.859 239.728V217.264C649.347 217.168 648.771 217.104 648.131 217.072C647.523 217.008 646.979 216.976 646.499 216.976C643.587 216.976 641.411 217.84 639.971 219.568C638.531 221.296 637.811 224.464 637.811 229.072C637.811 232.272 638.099 234.736 638.675 236.464C639.283 238.192 640.115 239.392 641.171 240.064C642.227 240.704 643.491 241.024 644.963 241.024ZM679.723 217.36C681.515 213.648 682.907 210.224 683.899 207.088C684.923 203.952 685.435 200.784 685.435 197.584L689.899 201.04H687.499C683.883 201.04 680.923 199.984 678.619 197.872C676.315 195.76 675.163 192.88 675.163 189.232C675.163 185.488 676.267 182.592 678.475 180.544C680.683 178.496 683.595 177.472 687.211 177.472C691.307 177.472 694.427 178.752 696.571 181.312C698.715 183.872 699.787 187.68 699.787 192.736C699.787 196.96 698.971 201.264 697.339 205.648C695.707 210.032 693.531 213.936 690.811 217.36H679.723ZM721.485 257.056C718.509 257.056 715.613 256.848 712.797 256.432C710.013 256.048 707.373 255.456 704.877 254.656V240.112C707.213 240.848 709.773 241.44 712.557 241.888C715.341 242.304 718.189 242.512 721.101 242.512C723.629 242.512 725.341 242.256 726.237 241.744C727.133 241.2 727.581 240.496 727.581 239.632C727.581 239.024 727.405 238.576 727.053 238.288C726.701 237.968 726.093 237.712 725.229 237.52L716.637 235.792C712.221 234.96 708.861 233.264 706.557 230.704C704.285 228.144 703.149 224.608 703.149 220.096C703.149 214.688 705.261 210.384 709.485 207.184C713.709 203.952 720.077 202.336 728.589 202.336C731.149 202.336 733.613 202.48 735.981 202.768C738.381 203.056 740.509 203.44 742.365 203.92V218.464C740.509 217.952 738.477 217.552 736.269 217.264C734.061 216.976 731.789 216.832 729.453 216.832C727.085 216.832 725.277 216.992 724.029 217.312C722.813 217.632 721.981 218.032 721.533 218.512C721.117 218.96 720.909 219.424 720.909 219.904C720.909 220.448 721.101 220.864 721.485 221.152C721.869 221.44 722.509 221.664 723.405 221.824L731.997 223.552C736.189 224.416 739.453 226.032 741.789 228.4C744.157 230.736 745.341 234.304 745.341 239.104C745.341 244.672 743.213 249.056 738.957 252.256C734.701 255.456 728.877 257.056 721.485 257.056ZM795.019 256.96C793.067 256.96 790.859 256.88 788.395 256.72C785.963 256.592 783.499 256.4 781.003 256.144C778.539 255.92 776.299 255.648 774.283 255.328V186.592C776.523 186.08 778.987 185.632 781.675 185.248C784.363 184.832 787.099 184.528 789.883 184.336C792.667 184.112 795.323 184 797.851 184C804.987 184 810.843 184.72 815.419 186.16C820.027 187.6 823.435 189.824 825.643 192.832C827.851 195.808 828.955 199.6 828.955 204.208C828.955 206.8 828.459 209.168 827.467 211.312C826.507 213.424 825.147 215.216 823.387 216.688C821.627 218.128 819.611 219.136 817.339 219.712V219.136C821.179 219.808 824.395 221.472 826.987 224.128C829.611 226.784 830.923 230.672 830.923 235.792C830.923 239.216 830.251 242.24 828.907 244.864C827.595 247.488 825.499 249.696 822.619 251.488C819.771 253.28 816.059 254.64 811.483 255.568C806.939 256.496 801.451 256.96 795.019 256.96ZM800.635 242.32C803.611 242.32 805.963 242.064 807.691 241.552C809.451 241.008 810.699 240.176 811.435 239.056C812.171 237.936 812.539 236.496 812.539 234.736C812.539 232.144 811.723 230.272 810.091 229.12C808.491 227.936 805.819 227.344 802.075 227.344H791.803V212.224H800.635C803.099 212.224 805.035 211.984 806.443 211.504C807.851 211.024 808.859 210.288 809.467 209.296C810.107 208.304 810.427 207.024 810.427 205.456C810.427 203.056 809.707 201.328 808.267 200.272C806.859 199.184 804.395 198.64 800.875 198.64C799.595 198.64 798.363 198.704 797.179 198.832C795.995 198.928 794.795 199.072 793.579 199.264V242.032C795.019 242.128 796.283 242.208 797.371 242.272C798.459 242.304 799.547 242.32 800.635 242.32ZM864.355 257.056C857.379 257.056 851.715 256.096 847.363 254.176C843.011 252.256 839.827 249.264 837.811 245.2C835.795 241.104 834.787 235.84 834.787 229.408C834.787 223.776 835.731 218.944 837.619 214.912C839.507 210.848 842.291 207.744 845.971 205.6C849.683 203.424 854.259 202.336 859.699 202.336C864.787 202.336 869.027 203.424 872.419 205.6C875.811 207.776 878.355 210.944 880.051 215.104C881.779 219.232 882.643 224.208 882.643 230.032V235.216H847.459V224.128H867.379L864.643 224.944C864.643 222.192 864.467 220.064 864.115 218.56C863.763 217.056 863.203 216.016 862.435 215.44C861.699 214.832 860.723 214.528 859.507 214.528C858.259 214.528 857.251 214.816 856.483 215.392C855.715 215.968 855.155 217.024 854.803 218.56C854.451 220.064 854.275 222.176 854.275 224.896V233.296C854.275 235.536 854.611 237.296 855.283 238.576C855.955 239.856 857.203 240.768 859.027 241.312C860.851 241.856 863.523 242.128 867.043 242.128C869.091 242.128 871.187 242 873.331 241.744C875.507 241.456 877.651 241.088 879.763 240.64V255.376C876.979 255.952 874.355 256.368 871.891 256.624C869.427 256.912 866.915 257.056 864.355 257.056ZM904.391 257.056C901.415 257.056 898.519 256.848 895.703 256.432C892.919 256.048 890.279 255.456 887.783 254.656V240.112C890.119 240.848 892.679 241.44 895.463 241.888C898.247 242.304 901.095 242.512 904.007 242.512C906.535 242.512 908.247 242.256 909.143 241.744C910.039 241.2 910.487 240.496 910.487 239.632C910.487 239.024 910.311 238.576 909.959 238.288C909.607 237.968 908.999 237.712 908.135 237.52L899.543 235.792C895.127 234.96 891.767 233.264 889.463 230.704C887.191 228.144 886.055 224.608 886.055 220.096C886.055 214.688 888.167 210.384 892.391 207.184C896.615 203.952 902.983 202.336 911.495 202.336C914.055 202.336 916.519 202.48 918.887 202.768C921.287 203.056 923.415 203.44 925.271 203.92V218.464C923.415 217.952 921.383 217.552 919.175 217.264C916.967 216.976 914.695 216.832 912.359 216.832C909.991 216.832 908.183 216.992 906.935 217.312C905.719 217.632 904.887 218.032 904.439 218.512C904.023 218.96 903.815 219.424 903.815 219.904C903.815 220.448 904.007 220.864 904.391 221.152C904.775 221.44 905.415 221.664 906.311 221.824L914.903 223.552C919.095 224.416 922.359 226.032 924.695 228.4C927.063 230.736 928.247 234.304 928.247 239.104C928.247 244.672 926.119 249.056 921.863 252.256C917.607 255.456 911.783 257.056 904.391 257.056ZM957.56 256.96C950.84 256.96 945.688 255.28 942.104 251.92C938.52 248.528 936.728 243.072 936.728 235.552V203.2L940.328 184.96H956.168V232.912C956.168 235.952 956.664 238.032 957.656 239.152C958.648 240.24 960.44 240.784 963.032 240.784C963.736 240.784 964.456 240.752 965.192 240.688C965.96 240.624 966.824 240.512 967.784 240.352V255.76C966.408 256.08 964.792 256.352 962.936 256.576C961.112 256.832 959.32 256.96 957.56 256.96ZM929.528 218.32V203.2H967.784V218.32H929.528ZM213.704 376L197.432 304.96H217.4L230.648 368.176H225.272L239.912 304.96H261.416L275.096 368.176H270.2L283.976 304.96H302.552L286.328 376H260.84L247.928 317.968H253.112L239.192 376H213.704ZM330.449 377.056C323.473 377.056 317.809 376.096 313.457 374.176C309.105 372.256 305.921 369.264 303.905 365.2C301.889 361.104 300.881 355.84 300.881 349.408C300.881 343.776 301.825 338.944 303.713 334.912C305.601 330.848 308.385 327.744 312.065 325.6C315.777 323.424 320.353 322.336 325.793 322.336C330.881 322.336 335.121 323.424 338.513 325.6C341.905 327.776 344.449 330.944 346.145 335.104C347.873 339.232 348.737 344.208 348.737 350.032V355.216H313.553V344.128H333.473L330.737 344.944C330.737 342.192 330.561 340.064 330.209 338.56C329.857 337.056 329.297 336.016 328.529 335.44C327.793 334.832 326.817 334.528 325.601 334.528C324.353 334.528 323.345 334.816 322.577 335.392C321.809 335.968 321.249 337.024 320.897 338.56C320.545 340.064 320.369 342.176 320.369 344.896V353.296C320.369 355.536 320.705 357.296 321.377 358.576C322.049 359.856 323.297 360.768 325.121 361.312C326.945 361.856 329.617 362.128 333.137 362.128C335.185 362.128 337.281 362 339.425 361.744C341.601 361.456 343.745 361.088 345.857 360.64V375.376C343.073 375.952 340.449 376.368 337.985 376.624C335.521 376.912 333.009 377.056 330.449 377.056ZM375.861 376.96C372.341 376.96 368.709 376.688 364.965 376.144C361.253 375.632 357.829 374.832 354.693 373.744V298.432H374.133V328.336H375.045C376.293 326.384 377.909 324.896 379.893 323.872C381.877 322.848 384.181 322.336 386.805 322.336C390.197 322.336 393.333 323.28 396.213 325.168C399.125 327.024 401.461 329.904 403.221 333.808C404.981 337.68 405.861 342.624 405.861 348.64C405.861 357.728 403.445 364.736 398.613 369.664C393.813 374.56 386.229 376.992 375.861 376.96ZM377.493 362.368C380.405 362.368 382.581 361.504 384.021 359.776C385.461 358.048 386.181 354.88 386.181 350.272C386.181 347.072 385.877 344.624 385.269 342.928C384.693 341.2 383.829 340.016 382.677 339.376C381.557 338.704 380.181 338.368 378.549 338.368C377.813 338.368 377.045 338.448 376.245 338.608C375.477 338.736 374.773 338.944 374.133 339.232V361.984C374.645 362.112 375.173 362.208 375.717 362.272C376.293 362.336 376.885 362.368 377.493 362.368ZM455.576 376.864C453.528 376.864 451.368 376.816 449.096 376.72C446.824 376.656 444.552 376.544 442.28 376.384C440.008 376.224 437.832 376.016 435.752 375.76V306.592C438.024 306.08 440.424 305.632 442.952 305.248C445.512 304.864 448.12 304.576 450.776 304.384C453.464 304.16 456.152 304.048 458.84 304.048C471.704 304.048 481.384 306.992 487.88 312.88C494.376 318.736 497.624 327.936 497.624 340.48C497.624 348.992 496.072 355.936 492.968 361.312C489.896 366.656 485.256 370.592 479.048 373.12C472.84 375.616 465.016 376.864 455.576 376.864ZM461.048 360.688C464.568 360.688 467.528 360.08 469.928 358.864C472.36 357.616 474.184 355.52 475.4 352.576C476.648 349.6 477.272 345.552 477.272 340.432C477.272 335.312 476.616 331.28 475.304 328.336C474.024 325.36 472.152 323.248 469.688 322C467.224 320.752 464.264 320.128 460.808 320.128C460.04 320.128 459.144 320.176 458.12 320.272C457.096 320.368 456.248 320.496 455.576 320.656V360.592C456.632 360.624 457.624 360.656 458.552 360.688C459.48 360.688 460.312 360.688 461.048 360.688ZM532.387 377.056C525.411 377.056 519.747 376.096 515.395 374.176C511.043 372.256 507.859 369.264 505.843 365.2C503.827 361.104 502.819 355.84 502.819 349.408C502.819 343.776 503.763 338.944 505.651 334.912C507.539 330.848 510.323 327.744 514.003 325.6C517.715 323.424 522.291 322.336 527.731 322.336C532.819 322.336 537.059 323.424 540.451 325.6C543.843 327.776 546.387 330.944 548.083 335.104C549.811 339.232 550.675 344.208 550.675 350.032V355.216H515.491V344.128H535.411L532.675 344.944C532.675 342.192 532.499 340.064 532.147 338.56C531.795 337.056 531.235 336.016 530.467 335.44C529.731 334.832 528.755 334.528 527.539 334.528C526.291 334.528 525.283 334.816 524.515 335.392C523.747 335.968 523.187 337.024 522.835 338.56C522.483 340.064 522.307 342.176 522.307 344.896V353.296C522.307 355.536 522.643 357.296 523.315 358.576C523.987 359.856 525.235 360.768 527.059 361.312C528.883 361.856 531.555 362.128 535.075 362.128C537.123 362.128 539.219 362 541.363 361.744C543.539 361.456 545.683 361.088 547.795 360.64V375.376C545.011 375.952 542.387 376.368 539.923 376.624C537.459 376.912 534.947 377.056 532.387 377.056ZM572.422 377.056C569.446 377.056 566.55 376.848 563.734 376.432C560.95 376.048 558.31 375.456 555.814 374.656V360.112C558.15 360.848 560.71 361.44 563.494 361.888C566.278 362.304 569.126 362.512 572.038 362.512C574.566 362.512 576.278 362.256 577.174 361.744C578.07 361.2 578.518 360.496 578.518 359.632C578.518 359.024 578.342 358.576 577.99 358.288C577.638 357.968 577.03 357.712 576.166 357.52L567.574 355.792C563.158 354.96 559.798 353.264 557.494 350.704C555.222 348.144 554.086 344.608 554.086 340.096C554.086 334.688 556.198 330.384 560.422 327.184C564.646 323.952 571.014 322.336 579.526 322.336C582.086 322.336 584.55 322.48 586.918 322.768C589.318 323.056 591.446 323.44 593.302 323.92V338.464C591.446 337.952 589.414 337.552 587.206 337.264C584.998 336.976 582.726 336.832 580.39 336.832C578.022 336.832 576.214 336.992 574.966 337.312C573.75 337.632 572.918 338.032 572.47 338.512C572.054 338.96 571.846 339.424 571.846 339.904C571.846 340.448 572.038 340.864 572.422 341.152C572.806 341.44 573.446 341.664 574.342 341.824L582.934 343.552C587.126 344.416 590.39 346.032 592.726 348.4C595.094 350.736 596.278 354.304 596.278 359.104C596.278 364.672 594.15 369.056 589.894 372.256C585.638 375.456 579.814 377.056 572.422 377.056ZM601.818 376V323.2H621.354V376H601.818ZM611.562 317.968C607.53 317.968 604.57 317.088 602.682 315.328C600.794 313.536 599.85 311.072 599.85 307.936C599.85 304.736 600.794 302.272 602.682 300.544C604.57 298.784 607.53 297.904 611.562 297.904C615.626 297.904 618.586 298.784 620.442 300.544C622.33 302.272 623.274 304.736 623.274 307.936C623.274 311.072 622.33 313.536 620.442 315.328C618.586 317.088 615.626 317.968 611.562 317.968ZM648.811 398.08C646.155 398.08 643.339 397.936 640.363 397.648C637.387 397.36 634.475 396.896 631.627 396.256V381.136C634.315 381.808 636.971 382.304 639.595 382.624C642.219 382.944 644.715 383.104 647.083 383.104C651.371 383.104 654.507 382.304 656.491 380.704C658.507 379.136 659.515 376.48 659.515 372.736V370.24H658.603C657.387 372.192 655.771 373.696 653.755 374.752C651.771 375.776 649.467 376.288 646.843 376.288C643.611 376.288 640.539 375.376 637.627 373.552C634.715 371.696 632.347 368.88 630.523 365.104C628.699 361.296 627.787 356.464 627.787 350.608C627.787 341.68 630.187 334.736 634.987 329.776C639.819 324.816 647.451 322.336 657.883 322.336C660.187 322.336 662.571 322.464 665.035 322.72C667.531 322.944 669.963 323.296 672.331 323.776C674.731 324.256 676.939 324.848 678.955 325.552V369.136C678.955 379.28 676.459 386.64 671.467 391.216C666.507 395.792 658.955 398.08 648.811 398.08ZM655.099 360.448C655.867 360.448 656.635 360.384 657.403 360.256C658.171 360.096 658.875 359.872 659.515 359.584V337.216C659.003 337.12 658.443 337.056 657.835 337.024C657.259 336.96 656.683 336.928 656.107 336.928C653.355 336.928 651.227 337.792 649.723 339.52C648.219 341.216 647.467 344.352 647.467 348.928C647.467 352 647.739 354.368 648.283 356.032C648.859 357.696 649.707 358.848 650.827 359.488C651.979 360.128 653.403 360.448 655.099 360.448ZM687.412 376V323.2H703.444L704.788 328.384H705.604C707.268 326.4 709.252 324.896 711.556 323.872C713.892 322.848 716.484 322.336 719.332 322.336C722.564 322.336 725.46 323.024 728.02 324.4C730.58 325.776 732.596 328 734.068 331.072C735.572 334.112 736.323 338.16 736.323 343.216V376H716.836V344.608C716.836 342.528 716.436 341.12 715.636 340.384C714.868 339.616 713.796 339.232 712.42 339.232C711.684 339.232 710.964 339.328 710.26 339.52C709.588 339.712 708.948 339.984 708.34 340.336C707.764 340.656 707.268 341.024 706.852 341.44V376H687.412ZM763.06 376L782.404 304.96H811.828L831.172 376H811.78L796.084 313.552H797.86L782.26 376H763.06ZM778.036 359.584L781.924 343.504H812.212L816.1 359.584H778.036ZM853.749 398.08C851.093 398.08 848.277 397.936 845.301 397.648C842.325 397.36 839.413 396.896 836.565 396.256V381.136C839.253 381.808 841.909 382.304 844.533 382.624C847.157 382.944 849.653 383.104 852.021 383.104C856.309 383.104 859.445 382.304 861.429 380.704C863.445 379.136 864.453 376.48 864.453 372.736V370.24H863.541C862.325 372.192 860.709 373.696 858.693 374.752C856.709 375.776 854.405 376.288 851.781 376.288C848.549 376.288 845.477 375.376 842.565 373.552C839.653 371.696 837.285 368.88 835.461 365.104C833.637 361.296 832.725 356.464 832.725 350.608C832.725 341.68 835.125 334.736 839.925 329.776C844.757 324.816 852.389 322.336 862.821 322.336C865.125 322.336 867.509 322.464 869.973 322.72C872.469 322.944 874.901 323.296 877.269 323.776C879.669 324.256 881.877 324.848 883.893 325.552V369.136C883.893 379.28 881.397 386.64 876.405 391.216C871.445 395.792 863.893 398.08 853.749 398.08ZM860.037 360.448C860.805 360.448 861.573 360.384 862.341 360.256C863.109 360.096 863.813 359.872 864.453 359.584V337.216C863.941 337.12 863.381 337.056 862.773 337.024C862.197 336.96 861.621 336.928 861.045 336.928C858.293 336.928 856.165 337.792 854.661 339.52C853.157 341.216 852.405 344.352 852.405 348.928C852.405 352 852.677 354.368 853.221 356.032C853.797 357.696 854.645 358.848 855.765 359.488C856.917 360.128 858.341 360.448 860.037 360.448ZM919.949 377.056C912.973 377.056 907.309 376.096 902.957 374.176C898.605 372.256 895.421 369.264 893.405 365.2C891.389 361.104 890.381 355.84 890.381 349.408C890.381 343.776 891.325 338.944 893.213 334.912C895.101 330.848 897.885 327.744 901.565 325.6C905.277 323.424 909.853 322.336 915.293 322.336C920.381 322.336 924.621 323.424 928.013 325.6C931.405 327.776 933.949 330.944 935.645 335.104C937.373 339.232 938.237 344.208 938.237 350.032V355.216H903.053V344.128H922.973L920.237 344.944C920.237 342.192 920.061 340.064 919.709 338.56C919.357 337.056 918.797 336.016 918.029 335.44C917.293 334.832 916.317 334.528 915.101 334.528C913.853 334.528 912.845 334.816 912.077 335.392C911.309 335.968 910.749 337.024 910.397 338.56C910.045 340.064 909.869 342.176 909.869 344.896V353.296C909.869 355.536 910.205 357.296 910.877 358.576C911.549 359.856 912.797 360.768 914.621 361.312C916.445 361.856 919.117 362.128 922.637 362.128C924.685 362.128 926.781 362 928.925 361.744C931.101 361.456 933.245 361.088 935.357 360.64V375.376C932.573 375.952 929.949 376.368 927.485 376.624C925.021 376.912 922.509 377.056 919.949 377.056ZM944.193 376V323.2H960.225L961.569 328.384H962.385C964.049 326.4 966.033 324.896 968.337 323.872C970.673 322.848 973.265 322.336 976.113 322.336C979.345 322.336 982.241 323.024 984.801 324.4C987.361 325.776 989.377 328 990.849 331.072C992.353 334.112 993.105 338.16 993.105 343.216V376H973.617V344.608C973.617 342.528 973.217 341.12 972.417 340.384C971.649 339.616 970.577 339.232 969.201 339.232C968.465 339.232 967.745 339.328 967.041 339.52C966.369 339.712 965.729 339.984 965.121 340.336C964.545 340.656 964.049 341.024 963.633 341.44V376H944.193ZM1026.97 377.056C1021.01 377.056 1015.97 376.048 1011.85 374.032C1007.75 372.016 1004.63 368.992 1002.49 364.96C1000.37 360.928 999.319 355.84 999.319 349.696C999.319 343.424 1000.49 338.272 1002.82 334.24C1005.16 330.208 1008.5 327.216 1012.85 325.264C1017.24 323.312 1022.45 322.336 1028.5 322.336C1030.55 322.336 1032.49 322.416 1034.31 322.576C1036.13 322.736 1037.89 322.992 1039.59 323.344V338.752C1038.28 338.528 1036.98 338.368 1035.7 338.272C1034.42 338.176 1033.13 338.128 1031.81 338.128C1028.9 338.128 1026.53 338.528 1024.71 339.328C1022.89 340.096 1021.54 341.328 1020.68 343.024C1019.85 344.688 1019.43 346.848 1019.43 349.504C1019.43 352.384 1019.85 354.688 1020.68 356.416C1021.51 358.144 1022.76 359.392 1024.42 360.16C1026.09 360.896 1028.18 361.264 1030.71 361.264C1032.09 361.264 1033.46 361.152 1034.84 360.928C1036.25 360.672 1037.83 360.304 1039.59 359.824V375.232C1037.8 375.808 1035.8 376.256 1033.59 376.576C1031.38 376.896 1029.17 377.056 1026.97 377.056ZM1056.89 397.12L1063.22 376L1069.7 360.112L1078.73 323.2H1097.83L1075.85 397.12H1056.89ZM1057.46 376L1041.82 323.2H1061.93L1074.98 376H1057.46Z" fill="#ECAD2B"/>
<path d="M505.62 522.4C504.807 522.4 503.887 522.367 502.86 522.3C501.847 522.247 500.82 522.167 499.78 522.06C498.753 521.967 497.82 521.853 496.98 521.72V493.08C497.913 492.867 498.94 492.68 500.06 492.52C501.18 492.347 502.32 492.22 503.48 492.14C504.64 492.047 505.747 492 506.8 492C509.773 492 512.213 492.3 514.12 492.9C516.04 493.5 517.46 494.427 518.38 495.68C519.3 496.92 519.76 498.5 519.76 500.42C519.76 501.5 519.553 502.487 519.14 503.38C518.74 504.26 518.173 505.007 517.44 505.62C516.707 506.22 515.867 506.64 514.92 506.88V506.64C516.52 506.92 517.86 507.613 518.94 508.72C520.033 509.827 520.58 511.447 520.58 513.58C520.58 515.007 520.3 516.267 519.74 517.36C519.193 518.453 518.32 519.373 517.12 520.12C515.933 520.867 514.387 521.433 512.48 521.82C510.587 522.207 508.3 522.4 505.62 522.4ZM507.96 516.3C509.2 516.3 510.18 516.193 510.9 515.98C511.633 515.753 512.153 515.407 512.46 514.94C512.767 514.473 512.92 513.873 512.92 513.14C512.92 512.06 512.58 511.28 511.9 510.8C511.233 510.307 510.12 510.06 508.56 510.06H504.28V503.76H507.96C508.987 503.76 509.793 503.66 510.38 503.46C510.967 503.26 511.387 502.953 511.64 502.54C511.907 502.127 512.04 501.593 512.04 500.94C512.04 499.94 511.74 499.22 511.14 498.78C510.553 498.327 509.527 498.1 508.06 498.1C507.527 498.1 507.013 498.127 506.52 498.18C506.027 498.22 505.527 498.28 505.02 498.36V516.18C505.62 516.22 506.147 516.253 506.6 516.28C507.053 516.293 507.507 516.3 507.96 516.3ZM523.01 522V500H531.15V522H523.01ZM527.07 497.82C525.39 497.82 524.157 497.453 523.37 496.72C522.583 495.973 522.19 494.947 522.19 493.64C522.19 492.307 522.583 491.28 523.37 490.56C524.157 489.827 525.39 489.46 527.07 489.46C528.763 489.46 529.997 489.827 530.77 490.56C531.557 491.28 531.95 492.307 531.95 493.64C531.95 494.947 531.557 495.973 530.77 496.72C529.997 497.453 528.763 497.82 527.07 497.82ZM534.651 522V489.68H542.751V522H534.651ZM546.252 522V489.68H554.352V522H546.252ZM583.865 522.4C580.078 522.4 576.925 521.853 574.405 520.76C571.898 519.653 570.012 517.98 568.745 515.74C567.492 513.5 566.865 510.667 566.865 507.24C566.865 503.88 567.512 501.073 568.805 498.82C570.098 496.553 572.012 494.853 574.545 493.72C577.092 492.573 580.238 492 583.985 492C585.185 492 586.305 492.06 587.345 492.18C588.398 492.287 589.418 492.46 590.405 492.7V499.5C589.498 499.3 588.585 499.14 587.665 499.02C586.758 498.9 585.818 498.84 584.845 498.84C582.605 498.84 580.798 499.12 579.425 499.68C578.052 500.24 577.052 501.147 576.425 502.4C575.798 503.653 575.485 505.307 575.485 507.36C575.485 509.32 575.765 510.907 576.325 512.12C576.898 513.32 577.745 514.2 578.865 514.76C579.998 515.32 581.398 515.6 583.065 515.6C583.665 515.6 584.292 515.58 584.945 515.54C585.598 515.487 586.178 515.42 586.685 515.34L583.625 517.86V507.6H591.265V521.74C590.052 521.94 588.805 522.1 587.525 522.22C586.258 522.34 585.038 522.4 583.865 522.4ZM600.842 522.44C598.736 522.44 597.062 521.833 595.822 520.62C594.596 519.393 593.982 517.8 593.982 515.84C593.982 513.667 594.702 511.967 596.142 510.74C597.596 509.5 599.982 508.787 603.302 508.6L606.502 508.42L607.502 512.78L604.242 512.96C603.442 513.013 602.849 513.213 602.462 513.56C602.076 513.907 601.882 514.387 601.882 515C601.882 515.56 602.049 515.993 602.382 516.3C602.716 516.593 603.169 516.74 603.742 516.74C604.022 516.74 604.322 516.707 604.642 516.64C604.962 516.56 605.269 516.427 605.562 516.24V508.96C605.562 508.213 605.442 507.613 605.202 507.16C604.962 506.707 604.536 506.38 603.922 506.18C603.322 505.967 602.489 505.86 601.422 505.86C600.609 505.86 599.702 505.927 598.702 506.06C597.702 506.193 596.749 506.387 595.842 506.64V500.46C596.936 500.193 598.122 499.993 599.402 499.86C600.682 499.713 601.882 499.64 603.002 499.64C605.456 499.64 607.449 499.953 608.982 500.58C610.516 501.193 611.642 502.213 612.362 503.64C613.082 505.067 613.442 507 613.442 509.44V522H606.842L606.262 519.86H605.922C605.389 520.793 604.676 521.46 603.782 521.86C602.902 522.247 601.922 522.44 600.842 522.44ZM626.978 522.4C624.178 522.4 622.031 521.7 620.538 520.3C619.045 518.887 618.298 516.613 618.298 513.48V500L619.798 492.4H626.398V512.38C626.398 513.647 626.605 514.513 627.018 514.98C627.431 515.433 628.178 515.66 629.258 515.66C629.551 515.66 629.851 515.647 630.158 515.62C630.478 515.593 630.838 515.547 631.238 515.48V521.9C630.665 522.033 629.991 522.147 629.218 522.24C628.458 522.347 627.711 522.4 626.978 522.4ZM615.298 506.3V500H631.238V506.3H615.298ZM645.057 522.44C642.15 522.44 639.79 522.04 637.977 521.24C636.164 520.44 634.837 519.193 633.997 517.5C633.157 515.793 632.737 513.6 632.737 510.92C632.737 508.573 633.13 506.56 633.917 504.88C634.704 503.187 635.864 501.893 637.397 501C638.944 500.093 640.85 499.64 643.117 499.64C645.237 499.64 647.004 500.093 648.417 501C649.83 501.907 650.89 503.227 651.597 504.96C652.317 506.68 652.677 508.753 652.677 511.18V513.34H638.017V508.72H646.317L645.177 509.06C645.177 507.913 645.104 507.027 644.957 506.4C644.81 505.773 644.577 505.34 644.257 505.1C643.95 504.847 643.544 504.72 643.037 504.72C642.517 504.72 642.097 504.84 641.777 505.08C641.457 505.32 641.224 505.76 641.077 506.4C640.93 507.027 640.857 507.907 640.857 509.04V512.54C640.857 513.473 640.997 514.207 641.277 514.74C641.557 515.273 642.077 515.653 642.837 515.88C643.597 516.107 644.71 516.22 646.177 516.22C647.03 516.22 647.904 516.167 648.797 516.06C649.704 515.94 650.597 515.787 651.477 515.6V521.74C650.317 521.98 649.224 522.153 648.197 522.26C647.17 522.38 646.124 522.44 645.057 522.44ZM661.738 522.44C660.498 522.44 659.292 522.353 658.118 522.18C656.958 522.02 655.858 521.773 654.818 521.44V515.38C655.792 515.687 656.858 515.933 658.018 516.12C659.178 516.293 660.365 516.38 661.578 516.38C662.632 516.38 663.345 516.273 663.718 516.06C664.092 515.833 664.278 515.54 664.278 515.18C664.278 514.927 664.205 514.74 664.058 514.62C663.912 514.487 663.658 514.38 663.298 514.3L659.718 513.58C657.878 513.233 656.478 512.527 655.518 511.46C654.572 510.393 654.098 508.92 654.098 507.04C654.098 504.787 654.978 502.993 656.738 501.66C658.498 500.313 661.152 499.64 664.698 499.64C665.765 499.64 666.792 499.7 667.778 499.82C668.778 499.94 669.665 500.1 670.438 500.3V506.36C669.665 506.147 668.818 505.98 667.898 505.86C666.978 505.74 666.032 505.68 665.058 505.68C664.072 505.68 663.318 505.747 662.798 505.88C662.292 506.013 661.945 506.18 661.758 506.38C661.585 506.567 661.498 506.76 661.498 506.96C661.498 507.187 661.578 507.36 661.738 507.48C661.898 507.6 662.165 507.693 662.538 507.76L666.118 508.48C667.865 508.84 669.225 509.513 670.198 510.5C671.185 511.473 671.678 512.96 671.678 514.96C671.678 517.28 670.792 519.107 669.018 520.44C667.245 521.773 664.818 522.44 661.738 522.44ZM676.908 512.4V497.62H671.508V492.4H688.728V497.62H683.328V512.4H676.908ZM690.328 512.4V492.4H698.188L702.088 503.18H701.588L705.248 492.4H713.108V512.4H707.128V498.28H708.168L704.208 509.4H699.228L695.008 498.28H696.308V512.4H690.328ZM717.619 529.2C718.366 527.653 718.946 526.227 719.359 524.92C719.786 523.613 719.999 522.293 719.999 520.96L721.859 522.4H720.859C719.352 522.4 718.119 521.96 717.159 521.08C716.199 520.2 715.719 519 715.719 517.48C715.719 515.92 716.179 514.713 717.099 513.86C718.019 513.007 719.232 512.58 720.739 512.58C722.446 512.58 723.746 513.113 724.639 514.18C725.532 515.247 725.979 516.833 725.979 518.94C725.979 520.7 725.639 522.493 724.959 524.32C724.279 526.147 723.372 527.773 722.239 529.2H717.619ZM753.011 522.4C750.518 522.4 748.304 522.107 746.371 521.52C744.438 520.933 742.804 520.027 741.471 518.8C740.151 517.573 739.151 516.007 738.471 514.1C737.791 512.193 737.451 509.92 737.451 507.28C737.451 503.907 738.071 501.087 739.311 498.82C740.564 496.553 742.378 494.853 744.751 493.72C747.124 492.573 750.004 492 753.391 492C754.418 492 755.431 492.053 756.431 492.16C757.444 492.253 758.404 492.4 759.311 492.6V499.4C758.498 499.24 757.658 499.107 756.791 499C755.938 498.893 755.051 498.84 754.131 498.84C752.304 498.84 750.791 499.12 749.591 499.68C748.404 500.24 747.524 501.133 746.951 502.36C746.378 503.573 746.091 505.187 746.091 507.2C746.091 509.253 746.371 510.893 746.931 512.12C747.491 513.333 748.351 514.207 749.511 514.74C750.684 515.273 752.191 515.54 754.031 515.54C754.831 515.54 755.684 515.46 756.591 515.3C757.498 515.14 758.404 514.933 759.311 514.68V521.48C758.471 521.76 757.484 521.98 756.351 522.14C755.218 522.313 754.104 522.4 753.011 522.4ZM762.175 522V492.4H783.115V499.16H770.315V515.24H783.315V522H762.175ZM767.475 510.28V503.52H781.015V510.28H767.475ZM799.145 522.4C796.359 522.4 793.919 521.853 791.825 520.76C789.732 519.667 788.099 518 786.925 515.76C785.765 513.52 785.185 510.667 785.185 507.2C785.185 503.733 785.765 500.88 786.925 498.64C788.099 496.4 789.732 494.733 791.825 493.64C793.919 492.547 796.359 492 799.145 492C801.945 492 804.392 492.547 806.485 493.64C808.579 494.733 810.205 496.407 811.365 498.66C812.539 500.9 813.125 503.747 813.125 507.2C813.125 510.653 812.539 513.507 811.365 515.76C810.205 518 808.572 519.667 806.465 520.76C804.372 521.853 801.932 522.4 799.145 522.4ZM799.145 515.7C800.332 515.7 801.332 515.42 802.145 514.86C802.959 514.3 803.579 513.413 804.005 512.2C804.432 510.973 804.645 509.36 804.645 507.36C804.645 505.253 804.425 503.567 803.985 502.3C803.559 501.033 802.939 500.12 802.125 499.56C801.312 498.987 800.319 498.7 799.145 498.7C797.972 498.7 796.979 498.973 796.165 499.52C795.352 500.067 794.732 500.953 794.305 502.18C793.879 503.407 793.665 505.027 793.665 507.04C793.665 509.16 793.872 510.853 794.285 512.12C794.712 513.387 795.332 514.3 796.145 514.86C796.972 515.42 797.972 515.7 799.145 515.7ZM825.927 522V492.4H836.067L842.827 509.66H842.107L848.587 492.4H858.747V522H851.067V499.98H852.447L845.587 517.6H839.067L831.887 499.98H833.607V522H825.927ZM862.541 522V500H870.681V522H862.541ZM866.601 497.82C864.921 497.82 863.688 497.453 862.901 496.72C862.115 495.973 861.721 494.947 861.721 493.64C861.721 492.307 862.115 491.28 862.901 490.56C863.688 489.827 864.921 489.46 866.601 489.46C868.295 489.46 869.528 489.827 870.301 490.56C871.088 491.28 871.481 492.307 871.481 493.64C871.481 494.947 871.088 495.973 870.301 496.72C869.528 497.453 868.295 497.82 866.601 497.82ZM884.882 522.44C882.402 522.44 880.302 522.02 878.582 521.18C876.875 520.34 875.575 519.08 874.682 517.4C873.802 515.72 873.362 513.6 873.362 511.04C873.362 508.427 873.849 506.28 874.822 504.6C875.795 502.92 877.189 501.673 879.002 500.86C880.829 500.047 883.002 499.64 885.522 499.64C886.375 499.64 887.182 499.673 887.942 499.74C888.702 499.807 889.435 499.913 890.142 500.06V506.48C889.595 506.387 889.055 506.32 888.522 506.28C887.989 506.24 887.449 506.22 886.902 506.22C885.689 506.22 884.702 506.387 883.942 506.72C883.182 507.04 882.622 507.553 882.262 508.26C881.915 508.953 881.742 509.853 881.742 510.96C881.742 512.16 881.915 513.12 882.262 513.84C882.609 514.56 883.129 515.08 883.822 515.4C884.515 515.707 885.389 515.86 886.442 515.86C887.015 515.86 887.589 515.813 888.162 515.72C888.749 515.613 889.409 515.46 890.142 515.26V521.68C889.395 521.92 888.562 522.107 887.642 522.24C886.722 522.373 885.802 522.44 884.882 522.44ZM892.815 522V500H899.435L900.055 502.92H900.395C900.888 501.72 901.581 500.873 902.475 500.38C903.368 499.887 904.401 499.64 905.575 499.64C905.881 499.64 906.188 499.66 906.495 499.7C906.815 499.727 907.088 499.76 907.315 499.8V507.2C906.955 507.12 906.568 507.067 906.155 507.04C905.755 507.013 905.388 507 905.055 507C904.495 507 903.948 507.06 903.415 507.18C902.881 507.287 902.395 507.453 901.955 507.68C901.528 507.893 901.181 508.147 900.915 508.44V522H892.815ZM919.18 522.44C916.927 522.44 914.993 522.02 913.38 521.18C911.78 520.34 910.553 519.08 909.7 517.4C908.86 515.72 908.44 513.627 908.44 511.12C908.44 508.56 908.853 506.433 909.68 504.74C910.52 503.033 911.74 501.76 913.34 500.92C914.94 500.067 916.887 499.64 919.18 499.64C921.46 499.64 923.4 500.073 925 500.94C926.6 501.807 927.82 503.087 928.66 504.78C929.5 506.473 929.92 508.567 929.92 511.06C929.92 513.593 929.493 515.707 928.64 517.4C927.787 519.08 926.553 520.34 924.94 521.18C923.34 522.02 921.42 522.44 919.18 522.44ZM919.18 516.44C919.74 516.44 920.207 516.3 920.58 516.02C920.953 515.74 921.233 515.22 921.42 514.46C921.62 513.687 921.72 512.573 921.72 511.12C921.72 509.627 921.62 508.487 921.42 507.7C921.233 506.913 920.947 506.373 920.56 506.08C920.187 505.787 919.727 505.64 919.18 505.64C918.633 505.64 918.167 505.787 917.78 506.08C917.407 506.36 917.12 506.893 916.92 507.68C916.733 508.453 916.64 509.58 916.64 511.06C916.64 512.54 916.733 513.667 916.92 514.44C917.107 515.213 917.387 515.74 917.76 516.02C918.133 516.3 918.607 516.44 919.18 516.44ZM939.16 522.44C937.92 522.44 936.714 522.353 935.54 522.18C934.38 522.02 933.28 521.773 932.24 521.44V515.38C933.214 515.687 934.28 515.933 935.44 516.12C936.6 516.293 937.787 516.38 939 516.38C940.054 516.38 940.767 516.273 941.14 516.06C941.514 515.833 941.7 515.54 941.7 515.18C941.7 514.927 941.627 514.74 941.48 514.62C941.334 514.487 941.08 514.38 940.72 514.3L937.14 513.58C935.3 513.233 933.9 512.527 932.94 511.46C931.994 510.393 931.52 508.92 931.52 507.04C931.52 504.787 932.4 502.993 934.16 501.66C935.92 500.313 938.574 499.64 942.12 499.64C943.187 499.64 944.214 499.7 945.2 499.82C946.2 499.94 947.087 500.1 947.86 500.3V506.36C947.087 506.147 946.24 505.98 945.32 505.86C944.4 505.74 943.454 505.68 942.48 505.68C941.494 505.68 940.74 505.747 940.22 505.88C939.714 506.013 939.367 506.18 939.18 506.38C939.007 506.567 938.92 506.76 938.92 506.96C938.92 507.187 939 507.36 939.16 507.48C939.32 507.6 939.587 507.693 939.96 507.76L943.54 508.48C945.287 508.84 946.647 509.513 947.62 510.5C948.607 511.473 949.1 512.96 949.1 514.96C949.1 517.28 948.214 519.107 946.44 520.44C944.667 521.773 942.24 522.44 939.16 522.44ZM961.328 522.44C959.075 522.44 957.142 522.02 955.528 521.18C953.928 520.34 952.702 519.08 951.848 517.4C951.008 515.72 950.588 513.627 950.588 511.12C950.588 508.56 951.002 506.433 951.828 504.74C952.668 503.033 953.888 501.76 955.488 500.92C957.088 500.067 959.035 499.64 961.328 499.64C963.608 499.64 965.548 500.073 967.148 500.94C968.748 501.807 969.968 503.087 970.808 504.78C971.648 506.473 972.068 508.567 972.068 511.06C972.068 513.593 971.642 515.707 970.788 517.4C969.935 519.08 968.702 520.34 967.088 521.18C965.488 522.02 963.568 522.44 961.328 522.44ZM961.328 516.44C961.888 516.44 962.355 516.3 962.728 516.02C963.102 515.74 963.382 515.22 963.568 514.46C963.768 513.687 963.868 512.573 963.868 511.12C963.868 509.627 963.768 508.487 963.568 507.7C963.382 506.913 963.095 506.373 962.708 506.08C962.335 505.787 961.875 505.64 961.328 505.64C960.782 505.64 960.315 505.787 959.928 506.08C959.555 506.36 959.268 506.893 959.068 507.68C958.882 508.453 958.788 509.58 958.788 511.06C958.788 512.54 958.882 513.667 959.068 514.44C959.255 515.213 959.535 515.74 959.908 516.02C960.282 516.3 960.755 516.44 961.328 516.44ZM975.685 522V499.36C975.685 497.267 976.078 495.467 976.865 493.96C977.665 492.453 978.851 491.3 980.425 490.5C982.011 489.687 983.971 489.28 986.305 489.28C986.851 489.28 987.385 489.3 987.905 489.34C988.438 489.38 988.951 489.44 989.445 489.52V495.82C989.098 495.78 988.778 495.753 988.485 495.74C988.205 495.713 987.918 495.7 987.625 495.7C986.211 495.7 985.205 495.967 984.605 496.5C984.005 497.02 983.705 497.82 983.705 498.9V522H975.685ZM972.685 506.3V500H988.525V506.3H972.685ZM997.994 522.4C995.194 522.4 993.047 521.7 991.554 520.3C990.06 518.887 989.314 516.613 989.314 513.48V500L990.814 492.4H997.414V512.38C997.414 513.647 997.62 514.513 998.034 514.98C998.447 515.433 999.194 515.66 1000.27 515.66C1000.57 515.66 1000.87 515.647 1001.17 515.62C1001.49 515.593 1001.85 515.547 1002.25 515.48V521.9C1001.68 522.033 1001.01 522.147 1000.23 522.24C999.474 522.347 998.727 522.4 997.994 522.4ZM986.314 506.3V500H1002.25V506.3H986.314ZM1028.82 522.44C1025.8 522.44 1023.17 521.807 1020.92 520.54C1018.68 519.273 1016.93 517.5 1015.68 515.22C1014.44 512.927 1013.82 510.253 1013.82 507.2C1013.82 504.147 1014.44 501.48 1015.68 499.2C1016.93 496.907 1018.68 495.127 1020.92 493.86C1023.17 492.593 1025.8 491.96 1028.82 491.96C1031.83 491.96 1034.46 492.593 1036.7 493.86C1038.95 495.127 1040.7 496.907 1041.94 499.2C1043.19 501.48 1043.82 504.147 1043.82 507.2C1043.82 510.253 1043.19 512.927 1041.94 515.22C1040.7 517.5 1038.95 519.273 1036.7 520.54C1034.46 521.807 1031.83 522.44 1028.82 522.44ZM1030.22 515.52C1027.5 515.52 1025.33 514.807 1023.72 513.38C1022.1 511.94 1021.3 509.933 1021.3 507.36C1021.3 504.76 1022.12 502.74 1023.78 501.3C1025.43 499.847 1027.66 499.12 1030.46 499.12C1031.2 499.12 1031.89 499.16 1032.52 499.24C1033.14 499.307 1033.74 499.413 1034.3 499.56V504.56C1033.7 504.453 1033.14 504.373 1032.62 504.32C1032.11 504.267 1031.58 504.24 1031.02 504.24C1029.72 504.24 1028.78 504.513 1028.18 505.06C1027.59 505.593 1027.3 506.36 1027.3 507.36C1027.3 508.333 1027.6 509.087 1028.2 509.62C1028.8 510.14 1029.66 510.4 1030.78 510.4C1031.34 510.4 1031.87 510.367 1032.38 510.3C1032.88 510.22 1033.52 510.093 1034.3 509.92V514.92C1033.8 515.093 1033.2 515.24 1032.5 515.36C1031.8 515.467 1031.04 515.52 1030.22 515.52ZM1028.82 518.2C1031.07 518.2 1032.98 517.76 1034.56 516.88C1036.13 515.987 1037.32 514.72 1038.14 513.08C1038.96 511.427 1039.38 509.467 1039.38 507.2C1039.38 504.933 1038.96 502.98 1038.14 501.34C1037.32 499.687 1036.13 498.42 1034.56 497.54C1032.98 496.647 1031.07 496.2 1028.82 496.2C1026.56 496.2 1024.65 496.647 1023.08 497.54C1021.5 498.42 1020.3 499.687 1019.48 501.34C1018.66 502.98 1018.26 504.933 1018.26 507.2C1018.26 509.467 1018.66 511.427 1019.48 513.08C1020.3 514.72 1021.5 515.987 1023.08 516.88C1024.65 517.76 1026.56 518.2 1028.82 518.2Z" fill="#18112C"/>
<path d="M450.74 513.86V507.32H464.44V513.86H450.74Z" fill="black"/>
</svg>
