<svg width="579" height="443" viewBox="0 0 579 443" fill="none" xmlns="http://www.w3.org/2000/svg">
<path d="M327.829 113.417C441.177 133.489 542.563 153.4 563.818 187.449C584.929 221.878 526.353 271.043 442.005 307.039C358.243 343.254 249.008 367.281 164.948 322.627C81.473 278.193 23.0289 165.458 56.3913 119.396C89.8967 72.9545 214.48 93.3457 327.829 113.417Z" fill="#DD6F69"/>
<path d="M117.48 234.439C116.68 234.439 116.04 234.306 115.56 234.039C115.133 233.826 114.813 233.532 114.6 233.159C114.387 232.732 114.227 232.332 114.12 231.959L97.8 183.719C97.3733 182.439 97.2933 181.479 97.56 180.839C97.88 180.146 98.7067 179.586 100.04 179.159C100.893 178.892 101.587 178.786 102.12 178.839C102.707 178.839 103.187 179.052 103.56 179.479C103.987 179.852 104.333 180.466 104.6 181.319L117.8 221.559L129.88 181.639C130.04 181.159 130.227 180.706 130.44 180.279C130.707 179.852 131.08 179.532 131.56 179.319C132.04 179.052 132.68 178.919 133.48 178.919C134.387 178.919 135.08 179.052 135.56 179.319C136.04 179.586 136.387 179.906 136.6 180.279C136.867 180.599 137.027 180.946 137.08 181.319L149.4 221.799L162.52 181.479C162.84 180.572 163.187 179.906 163.56 179.479C163.933 178.999 164.413 178.732 165 178.679C165.64 178.626 166.413 178.759 167.32 179.079C168.227 179.346 168.867 179.666 169.24 180.039C169.613 180.412 169.8 180.892 169.8 181.479C169.8 182.066 169.667 182.812 169.4 183.719L153.08 232.039C152.973 232.412 152.787 232.786 152.52 233.159C152.307 233.532 151.96 233.826 151.48 234.039C151.053 234.306 150.44 234.439 149.64 234.439C148.893 234.439 148.28 234.306 147.8 234.039C147.32 233.772 146.947 233.426 146.68 232.999C146.467 232.519 146.28 232.092 146.12 231.719L133.56 191.319L121 231.719C120.893 232.092 120.707 232.519 120.44 232.999C120.173 233.426 119.8 233.772 119.32 234.039C118.893 234.306 118.28 234.439 117.48 234.439ZM180.188 234.759C179.174 234.759 178.401 234.599 177.868 234.279C177.334 234.012 176.988 233.612 176.828 233.079C176.721 232.492 176.668 231.826 176.668 231.079V181.799C176.668 181.052 176.748 180.412 176.908 179.879C177.068 179.346 177.414 178.946 177.948 178.679C178.481 178.359 179.254 178.199 180.268 178.199C181.334 178.199 182.108 178.359 182.588 178.679C183.121 178.946 183.441 179.346 183.548 179.879C183.708 180.412 183.788 181.079 183.788 181.879V201.639C185.068 200.146 186.614 198.812 188.428 197.639C190.294 196.466 192.561 195.879 195.228 195.879C198.374 195.879 201.174 196.626 203.628 198.119C206.134 199.559 208.108 201.612 209.548 204.279C211.041 206.946 211.788 210.119 211.788 213.799V231.159C211.788 231.906 211.708 232.546 211.548 233.079C211.388 233.612 211.068 234.012 210.588 234.279C210.108 234.599 209.334 234.759 208.268 234.759C207.254 234.759 206.481 234.599 205.948 234.279C205.414 234.012 205.068 233.612 204.908 233.079C204.748 232.492 204.668 231.826 204.668 231.079V213.719C204.668 211.479 204.294 209.532 203.548 207.879C202.801 206.226 201.681 204.946 200.188 204.039C198.748 203.132 196.908 202.679 194.668 202.679C191.628 202.679 189.121 203.559 187.148 205.319C185.228 207.026 184.108 209.319 183.788 212.199V231.159C183.788 231.906 183.708 232.546 183.548 233.079C183.388 233.612 183.041 234.012 182.508 234.279C182.028 234.599 181.254 234.759 180.188 234.759ZM237.013 235.239C234.4 235.239 231.893 234.732 229.493 233.719C227.146 232.706 225.04 231.319 223.173 229.559C221.306 227.746 219.84 225.639 218.773 223.239C217.706 220.839 217.173 218.226 217.173 215.399C217.173 212.626 217.68 210.066 218.693 207.719C219.706 205.319 221.12 203.212 222.933 201.399C224.746 199.586 226.826 198.172 229.173 197.159C231.573 196.092 234.133 195.559 236.853 195.559C240.533 195.559 243.84 196.439 246.773 198.199C249.76 199.906 252.133 202.252 253.893 205.239C255.653 208.226 256.533 211.586 256.533 215.319C256.533 218.252 256 220.946 254.933 223.399C253.866 225.799 252.426 227.879 250.613 229.639C248.8 231.399 246.72 232.786 244.373 233.799C242.026 234.759 239.573 235.239 237.013 235.239ZM236.853 228.279C239.093 228.279 241.173 227.719 243.093 226.599C245.013 225.479 246.56 223.932 247.733 221.959C248.906 219.986 249.493 217.746 249.493 215.239C249.493 212.732 248.933 210.519 247.813 208.599C246.746 206.679 245.253 205.186 243.333 204.119C241.413 203.052 239.226 202.519 236.773 202.519C234.426 202.519 232.293 203.079 230.373 204.199C228.506 205.319 226.986 206.839 225.813 208.759C224.693 210.679 224.133 212.866 224.133 215.319C224.133 217.879 224.72 220.146 225.893 222.119C227.066 224.039 228.613 225.559 230.533 226.679C232.506 227.746 234.613 228.279 236.853 228.279ZM298.011 234.519C297.211 234.519 296.571 234.386 296.091 234.119C295.665 233.906 295.318 233.612 295.051 233.239C294.838 232.812 294.678 232.359 294.571 231.879L282.171 200.359C281.905 199.559 281.771 198.892 281.771 198.359C281.825 197.826 282.038 197.372 282.411 196.999C282.838 196.626 283.451 196.306 284.251 196.039C285.531 195.559 286.518 195.452 287.211 195.719C287.905 195.932 288.465 196.626 288.891 197.799L298.011 222.119L306.491 198.359C306.651 197.932 306.838 197.532 307.051 197.159C307.318 196.732 307.691 196.386 308.171 196.119C308.651 195.852 309.265 195.719 310.011 195.719C310.865 195.719 311.505 195.852 311.931 196.119C312.411 196.386 312.785 196.706 313.051 197.079C313.371 197.452 313.585 197.852 313.691 198.279L322.091 222.279L331.211 198.199C331.691 196.919 332.278 196.092 332.971 195.719C333.718 195.346 334.731 195.399 336.011 195.879C337.131 196.252 337.878 196.786 338.251 197.479C338.625 198.172 338.545 199.159 338.011 200.439L325.611 231.959C325.451 232.386 325.238 232.812 324.971 233.239C324.758 233.612 324.411 233.906 323.931 234.119C323.505 234.386 322.918 234.519 322.171 234.519C321.425 234.519 320.838 234.412 320.411 234.199C319.985 233.986 319.638 233.666 319.371 233.239C319.105 232.759 318.865 232.252 318.651 231.719L310.091 207.079L301.451 231.719C301.238 232.359 300.998 232.892 300.731 233.319C300.518 233.746 300.198 234.039 299.771 234.199C299.345 234.412 298.758 234.519 298.011 234.519ZM362.264 235.159C359.064 235.159 356.211 234.626 353.704 233.559C351.198 232.492 349.064 231.052 347.304 229.239C345.598 227.372 344.291 225.239 343.384 222.839C342.478 220.439 342.024 217.852 342.024 215.079C342.024 211.399 342.878 208.119 344.584 205.239C346.291 202.359 348.638 200.092 351.624 198.439C354.664 196.732 358.131 195.879 362.024 195.879C364.691 195.879 367.064 196.306 369.144 197.159C371.278 197.959 373.091 199.052 374.584 200.439C376.078 201.826 377.224 203.372 378.024 205.079C378.824 206.786 379.224 208.492 379.224 210.199C379.224 212.919 378.584 214.839 377.304 215.959C376.024 217.026 374.451 217.559 372.584 217.559H349.464C349.411 219.906 350.024 221.932 351.304 223.639C352.638 225.292 354.291 226.572 356.264 227.479C358.291 228.386 360.318 228.839 362.344 228.839C363.838 228.839 365.118 228.759 366.184 228.599C367.251 228.439 368.184 228.226 368.984 227.959C369.784 227.692 370.478 227.426 371.064 227.159C371.651 226.892 372.158 226.626 372.584 226.359C373.064 226.092 373.518 225.906 373.944 225.799C374.424 225.692 374.878 225.746 375.304 225.959C375.784 226.119 376.158 226.466 376.424 226.999C376.744 227.426 376.958 227.826 377.064 228.199C377.171 228.572 377.224 228.972 377.224 229.399C377.224 230.146 376.584 230.972 375.304 231.879C374.024 232.786 372.238 233.559 369.944 234.199C367.704 234.839 365.144 235.159 362.264 235.159ZM349.464 212.839H369.544C370.558 212.839 371.304 212.706 371.784 212.439C372.318 212.172 372.584 211.452 372.584 210.279C372.584 208.786 372.131 207.452 371.224 206.279C370.318 205.052 369.064 204.066 367.464 203.319C365.918 202.572 364.131 202.199 362.104 202.199C359.758 202.199 357.598 202.679 355.624 203.639C353.704 204.546 352.184 205.799 351.064 207.399C349.944 208.999 349.411 210.812 349.464 212.839ZM439.328 234.679C438.155 234.679 437.301 234.439 436.768 233.959C436.288 233.479 435.995 232.732 435.888 231.719L436.208 227.719C435.675 228.572 434.848 229.559 433.728 230.679C432.608 231.746 431.141 232.706 429.328 233.559C427.515 234.359 425.301 234.759 422.688 234.759C420.128 234.759 417.728 234.252 415.488 233.239C413.301 232.226 411.355 230.812 409.648 228.999C407.995 227.186 406.688 225.106 405.728 222.759C404.821 220.412 404.368 217.906 404.368 215.239C404.368 212.626 404.821 210.172 405.728 207.879C406.688 205.532 408.021 203.479 409.728 201.719C411.435 199.959 413.381 198.572 415.568 197.559C417.808 196.546 420.181 196.039 422.688 196.039C425.035 196.039 427.035 196.359 428.688 196.999C430.341 197.586 431.755 198.386 432.928 199.399C434.155 200.359 435.221 201.452 436.128 202.679L435.968 199.319C435.915 198.146 436.155 197.319 436.688 196.839C437.275 196.306 438.181 196.039 439.408 196.039C440.421 196.039 441.141 196.199 441.568 196.519C442.048 196.839 442.368 197.292 442.528 197.879C442.688 198.466 442.768 199.186 442.768 200.039V230.919C442.768 231.666 442.688 232.332 442.528 232.919C442.368 233.506 442.048 233.932 441.568 234.199C441.088 234.519 440.341 234.679 439.328 234.679ZM423.888 228.039C426.021 228.039 427.968 227.479 429.728 226.359C431.541 225.239 432.955 223.746 433.968 221.879C435.035 219.959 435.568 217.772 435.568 215.319C435.568 212.812 435.008 210.626 433.888 208.759C432.821 206.839 431.381 205.346 429.568 204.279C427.808 203.159 425.861 202.599 423.728 202.599C421.221 202.599 419.035 203.186 417.168 204.359C415.355 205.479 413.915 206.999 412.848 208.919C411.781 210.839 411.248 213.026 411.248 215.479C411.248 217.879 411.781 220.039 412.848 221.959C413.915 223.826 415.381 225.319 417.248 226.439C419.168 227.506 421.381 228.039 423.888 228.039ZM455.826 234.759C454.812 234.759 454.039 234.599 453.506 234.279C453.026 234.012 452.706 233.612 452.546 233.079C452.439 232.492 452.386 231.826 452.386 231.079V199.559C452.386 198.759 452.466 198.092 452.626 197.559C452.786 197.026 453.106 196.652 453.586 196.439C454.066 196.172 454.839 196.039 455.906 196.039C456.866 196.039 457.586 196.172 458.066 196.439C458.599 196.652 458.946 196.999 459.106 197.479C459.319 197.906 459.426 198.412 459.426 198.999L459.106 201.399C459.479 200.706 459.906 200.012 460.386 199.319C460.919 198.626 461.559 198.012 462.306 197.479C463.106 196.892 464.039 196.412 465.106 196.039C466.226 195.666 467.586 195.479 469.186 195.479C469.986 195.479 470.732 195.559 471.426 195.719C472.172 195.826 472.866 196.012 473.506 196.279C474.199 196.546 474.786 196.866 475.266 197.239C475.746 197.559 476.119 197.932 476.386 198.359C476.706 198.732 476.866 199.186 476.866 199.719C476.866 200.892 476.492 201.906 475.746 202.759C474.999 203.559 474.226 203.959 473.426 203.959C472.732 203.959 472.226 203.879 471.906 203.719C471.586 203.506 471.266 203.292 470.946 203.079C470.679 202.866 470.279 202.679 469.746 202.519C469.212 202.306 468.359 202.199 467.186 202.199C466.386 202.199 465.532 202.359 464.626 202.679C463.772 202.999 462.946 203.479 462.146 204.119C461.346 204.706 460.679 205.479 460.146 206.439C459.666 207.399 459.426 208.519 459.426 209.799V231.239C459.426 231.986 459.346 232.626 459.186 233.159C459.026 233.692 458.679 234.092 458.146 234.359C457.666 234.626 456.892 234.759 455.826 234.759ZM500.624 235.159C497.424 235.159 494.57 234.626 492.064 233.559C489.557 232.492 487.424 231.052 485.664 229.239C483.957 227.372 482.65 225.239 481.744 222.839C480.837 220.439 480.384 217.852 480.384 215.079C480.384 211.399 481.237 208.119 482.944 205.239C484.65 202.359 486.997 200.092 489.984 198.439C493.024 196.732 496.49 195.879 500.384 195.879C503.05 195.879 505.424 196.306 507.504 197.159C509.637 197.959 511.45 199.052 512.944 200.439C514.437 201.826 515.584 203.372 516.384 205.079C517.184 206.786 517.584 208.492 517.584 210.199C517.584 212.919 516.944 214.839 515.664 215.959C514.384 217.026 512.81 217.559 510.944 217.559H487.824C487.77 219.906 488.384 221.932 489.664 223.639C490.997 225.292 492.65 226.572 494.624 227.479C496.65 228.386 498.677 228.839 500.704 228.839C502.197 228.839 503.477 228.759 504.544 228.599C505.61 228.439 506.544 228.226 507.344 227.959C508.144 227.692 508.837 227.426 509.424 227.159C510.01 226.892 510.517 226.626 510.944 226.359C511.424 226.092 511.877 225.906 512.304 225.799C512.784 225.692 513.237 225.746 513.664 225.959C514.144 226.119 514.517 226.466 514.784 226.999C515.104 227.426 515.317 227.826 515.424 228.199C515.53 228.572 515.584 228.972 515.584 229.399C515.584 230.146 514.944 230.972 513.664 231.879C512.384 232.786 510.597 233.559 508.304 234.199C506.064 234.839 503.504 235.159 500.624 235.159ZM487.824 212.839H507.904C508.917 212.839 509.664 212.706 510.144 212.439C510.677 212.172 510.944 211.452 510.944 210.279C510.944 208.786 510.49 207.452 509.584 206.279C508.677 205.052 507.424 204.066 505.824 203.319C504.277 202.572 502.49 202.199 500.464 202.199C498.117 202.199 495.957 202.679 493.984 203.639C492.064 204.546 490.544 205.799 489.424 207.399C488.304 208.999 487.77 210.812 487.824 212.839Z" fill="white"/>
</svg>
